<?xml version="1.0" encoding="UTF-8"?>
<svg version="1.1" xmlns="http://www.w3.org/2000/svg" width="1024" height="1024">
<path d="M0 0 C337.92 0 675.84 0 1024 0 C1024 337.92 1024 675.84 1024 1024 C686.08 1024 348.16 1024 0 1024 C0 686.08 0 348.16 0 0 Z " fill="#FEFEFE" transform="translate(0,0)"/>
<path d="M0 0 C3.39047949 1.40413797 6.83010701 2.67841944 10.26245117 3.97607422 C12.08742505 4.67094074 13.90854322 5.37605459 15.72485352 6.09326172 C32.78612122 12.79385374 46.49329288 11.87662084 63.17626953 4.66162109 C64.09520996 4.26450928 65.01415039 3.86739746 65.9609375 3.45825195 C67.78907176 2.66160546 69.61261637 1.85431623 71.43066406 1.03491211 C80.58612213 -3.02127081 88.70508881 -4.51238529 98.70361328 -4.45166016 C99.66855713 -4.44674561 100.63350098 -4.44183105 101.62768555 -4.43676758 C124.29263295 -4.0686769 150.86809634 4.54561962 168.07861328 19.86083984 C172.45451896 24.88327573 174.61504794 28.64248525 174.44873047 35.31835938 C173.73419223 40.22680344 171.43944684 44.42041915 169.20361328 48.79833984 C168.45313721 50.3122229 168.45313721 50.3122229 167.6875 51.85668945 C162.08011586 63.06171963 156.00425139 73.95900435 149.59814453 84.72412109 C149.00437012 85.72241943 148.4105957 86.72071777 147.79882812 87.74926758 C146.63192882 89.70416749 145.45928996 91.65565559 144.28027344 93.60327148 C143.74837402 94.49006592 143.21647461 95.37686035 142.66845703 96.29052734 C142.1927124 97.07669434 141.71696777 97.86286133 141.22680664 98.67285156 C140.11454291 100.79237262 139.37643232 102.48641271 139.07861328 104.86083984 C140.35923813 106.56833964 141.70492983 108.22727034 143.07861328 109.86083984 C147.94744623 116.59851776 147.99184465 123.79546971 147.07861328 131.86083984 C145.87922402 136.33075883 144.43575001 140.35023533 141.31689453 143.82177734 C139.7918657 145.8134843 139.7918657 145.8134843 140.55517578 148.21630859 C142.48185589 151.56082766 144.88093905 154.32313258 147.45361328 157.17333984 C152.39964182 162.79565903 156.98396224 168.58964184 161.43115234 174.61157227 C165.27053556 179.8051903 169.21647621 184.90498648 173.20361328 189.98583984 C178.59482807 196.87989598 183.78524831 203.87681742 188.80273438 211.04638672 C190.18210114 213.00801201 191.57648204 214.95836977 192.97314453 216.90771484 C204.50936186 233.04723699 215.09780682 249.71647833 225.07861328 266.86083984 C225.45614746 267.50698242 225.83368164 268.153125 226.22265625 268.81884766 C250.85437893 311.46446992 264.8822157 367.0975754 252.14746094 415.62304688 C245.39353064 440.07061767 233.68040172 460.61186134 216.07861328 478.86083984 C215.54872803 479.41989014 215.01884277 479.97894043 214.47290039 480.55493164 C197.81619293 497.75713856 175.35717631 508.88897679 153.07861328 516.86083984 C151.97759277 517.25634033 150.87657227 517.65184082 149.7421875 518.05932617 C140.15182418 521.38728269 130.5028496 523.81549941 120.57861328 525.92333984 C119.7846817 526.0941507 118.99075012 526.26496155 118.17276001 526.44094849 C89.86765233 532.49471137 61.56398238 535.08725784 32.64111328 535.04833984 C31.66762939 535.04707092 30.69414551 535.045802 29.69116211 535.04449463 C-26.16370623 534.90596796 -89.9255713 526.11757529 -136.92138672 493.86083984 C-137.99517578 493.12607422 -139.06896484 492.39130859 -140.17529297 491.63427734 C-170.0297575 469.88797152 -188.34204908 440.71719094 -194.29956055 404.44799805 C-195.39414246 397.04529959 -195.42028589 389.64180284 -195.35888672 382.17333984 C-195.35617767 381.39357788 -195.35346863 380.61381592 -195.35067749 379.8104248 C-195.28265493 366.83814284 -194.25384256 354.44859621 -190.92138672 341.86083984 C-190.73946777 341.16265137 -190.55754883 340.46446289 -190.37011719 339.74511719 C-189.10192094 335.03613112 -187.57018759 330.44871553 -185.92138672 325.86083984 C-185.64311035 325.07418945 -185.36483398 324.28753906 -185.078125 323.47705078 C-175.40473508 296.36644691 -161.88371385 271.7374418 -145.92138672 247.86083984 C-145.41881348 247.10834961 -144.91624023 246.35585938 -144.3984375 245.58056641 C-136.24548841 233.42101068 -127.71558702 221.56380745 -118.92138672 209.86083984 C-118.46666992 209.25546387 -118.01195312 208.65008789 -117.54345703 208.02636719 C-111.04514161 199.40773286 -104.25066278 191.03630748 -97.4140625 182.68554688 C-96.0995247 181.07860289 -94.7894037 179.46804794 -93.47998047 177.85693359 C-89.98768497 173.56497115 -86.46458147 169.30196987 -82.88745117 165.08056641 C-81.95784317 163.98295306 -81.0305615 162.88336487 -80.10571289 161.78173828 C-77.76338783 158.99797344 -75.38799301 156.2613271 -72.92919922 153.57958984 C-72.45538818 153.04906006 -71.98157715 152.51853027 -71.4934082 151.97192383 C-70.18432228 150.50771434 -68.85612667 149.06065531 -67.52685547 147.61474609 C-65.54864909 144.92670814 -65.54864909 144.92670814 -66.56201172 141.77099609 C-67.01060547 140.81064453 -67.45919922 139.85029297 -67.92138672 138.86083984 C-68.19080078 138.13638672 -68.46021484 137.41193359 -68.73779297 136.66552734 C-69.23727937 135.37366198 -69.73728373 134.08199677 -70.23779297 132.79052734 C-72.86760744 125.36693678 -72.21300636 119.40926752 -69.13232422 112.23193359 C-66.84972909 107.76246506 -64.13181175 104.66778986 -59.92138672 101.86083984 C-60.51526287 97.86681998 -61.7698807 94.979436 -63.77294922 91.48583984 C-64.37018799 90.43154785 -64.96742676 89.37725586 -65.58276367 88.29101562 C-66.23075928 87.15905762 -66.87875488 86.02709961 -67.54638672 84.86083984 C-68.91329444 82.44504802 -70.27236195 80.02492521 -71.62841797 77.60302734 C-71.97899765 76.97709686 -72.32957733 76.35116638 -72.69078064 75.70626831 C-76.68456032 68.54230921 -80.47263092 61.27386787 -84.23388672 53.98583984 C-84.55762268 53.3609668 -84.88135864 52.73609375 -85.21490479 52.09228516 C-94.99782278 33.19407607 -94.99782278 33.19407607 -92.30419922 23.68115234 C-87.38420709 12.49143574 -75.59348873 7.33335197 -64.92138672 2.86083984 C-44.4058201 -4.9827358 -20.91681064 -8.71213948 0 0 Z " fill="#7BCCC0" transform="translate(486.92138671875,332.13916015625)"/>
<path d="M0 0 C3.39047949 1.40413797 6.83010701 2.67841944 10.26245117 3.97607422 C12.08742505 4.67094074 13.90854322 5.37605459 15.72485352 6.09326172 C32.78612122 12.79385374 46.49329288 11.87662084 63.17626953 4.66162109 C64.09520996 4.26450928 65.01415039 3.86739746 65.9609375 3.45825195 C67.78907176 2.66160546 69.61261637 1.85431623 71.43066406 1.03491211 C80.58612213 -3.02127081 88.70508881 -4.51238529 98.70361328 -4.45166016 C99.66855713 -4.44674561 100.63350098 -4.44183105 101.62768555 -4.43676758 C124.29263295 -4.0686769 150.86809634 4.54561962 168.07861328 19.86083984 C172.45451896 24.88327573 174.61504794 28.64248525 174.44873047 35.31835938 C173.73419223 40.22680344 171.43944684 44.42041915 169.20361328 48.79833984 C168.45313721 50.3122229 168.45313721 50.3122229 167.6875 51.85668945 C162.08011586 63.06171963 156.00425139 73.95900435 149.59814453 84.72412109 C149.00437012 85.72241943 148.4105957 86.72071777 147.79882812 87.74926758 C146.63192882 89.70416749 145.45928996 91.65565559 144.28027344 93.60327148 C143.74837402 94.49006592 143.21647461 95.37686035 142.66845703 96.29052734 C142.1927124 97.07669434 141.71696777 97.86286133 141.22680664 98.67285156 C140.11454291 100.79237262 139.37643232 102.48641271 139.07861328 104.86083984 C140.35923813 106.56833964 141.70492983 108.22727034 143.07861328 109.86083984 C147.94744623 116.59851776 147.99184465 123.79546971 147.07861328 131.86083984 C145.87922402 136.33075883 144.43575001 140.35023533 141.31689453 143.82177734 C139.7918657 145.8134843 139.7918657 145.8134843 140.55517578 148.21630859 C142.48185589 151.56082766 144.88093905 154.32313258 147.45361328 157.17333984 C152.39964182 162.79565903 156.98396224 168.58964184 161.43115234 174.61157227 C165.27053556 179.8051903 169.21647621 184.90498648 173.20361328 189.98583984 C178.59482807 196.87989598 183.78524831 203.87681742 188.80273438 211.04638672 C190.18210114 213.00801201 191.57648204 214.95836977 192.97314453 216.90771484 C204.50936186 233.04723699 215.09780682 249.71647833 225.07861328 266.86083984 C225.45614746 267.50698242 225.83368164 268.153125 226.22265625 268.81884766 C250.85437893 311.46446992 264.8822157 367.0975754 252.14746094 415.62304688 C245.39353064 440.07061767 233.68040172 460.61186134 216.07861328 478.86083984 C215.54872803 479.41989014 215.01884277 479.97894043 214.47290039 480.55493164 C197.81619293 497.75713856 175.35717631 508.88897679 153.07861328 516.86083984 C151.97759277 517.25634033 150.87657227 517.65184082 149.7421875 518.05932617 C140.15182418 521.38728269 130.5028496 523.81549941 120.57861328 525.92333984 C119.7846817 526.0941507 118.99075012 526.26496155 118.17276001 526.44094849 C89.86765233 532.49471137 61.56398238 535.08725784 32.64111328 535.04833984 C31.66762939 535.04707092 30.69414551 535.045802 29.69116211 535.04449463 C-26.16370623 534.90596796 -89.9255713 526.11757529 -136.92138672 493.86083984 C-137.99517578 493.12607422 -139.06896484 492.39130859 -140.17529297 491.63427734 C-170.0297575 469.88797152 -188.34204908 440.71719094 -194.29956055 404.44799805 C-195.39414246 397.04529959 -195.42028589 389.64180284 -195.35888672 382.17333984 C-195.35617767 381.39357788 -195.35346863 380.61381592 -195.35067749 379.8104248 C-195.28265493 366.83814284 -194.25384256 354.44859621 -190.92138672 341.86083984 C-190.73946777 341.16265137 -190.55754883 340.46446289 -190.37011719 339.74511719 C-189.10192094 335.03613112 -187.57018759 330.44871553 -185.92138672 325.86083984 C-185.64311035 325.07418945 -185.36483398 324.28753906 -185.078125 323.47705078 C-175.40473508 296.36644691 -161.88371385 271.7374418 -145.92138672 247.86083984 C-145.41881348 247.10834961 -144.91624023 246.35585938 -144.3984375 245.58056641 C-136.24548841 233.42101068 -127.71558702 221.56380745 -118.92138672 209.86083984 C-118.46666992 209.25546387 -118.01195312 208.65008789 -117.54345703 208.02636719 C-111.04514161 199.40773286 -104.25066278 191.03630748 -97.4140625 182.68554688 C-96.0995247 181.07860289 -94.7894037 179.46804794 -93.47998047 177.85693359 C-89.98768497 173.56497115 -86.46458147 169.30196987 -82.88745117 165.08056641 C-81.95784317 163.98295306 -81.0305615 162.88336487 -80.10571289 161.78173828 C-77.76338783 158.99797344 -75.38799301 156.2613271 -72.92919922 153.57958984 C-72.45538818 153.04906006 -71.98157715 152.51853027 -71.4934082 151.97192383 C-70.18432228 150.50771434 -68.85612667 149.06065531 -67.52685547 147.61474609 C-65.54864909 144.92670814 -65.54864909 144.92670814 -66.56201172 141.77099609 C-67.01060547 140.81064453 -67.45919922 139.85029297 -67.92138672 138.86083984 C-68.19080078 138.13638672 -68.46021484 137.41193359 -68.73779297 136.66552734 C-69.23727937 135.37366198 -69.73728373 134.08199677 -70.23779297 132.79052734 C-72.86760744 125.36693678 -72.21300636 119.40926752 -69.13232422 112.23193359 C-66.84972909 107.76246506 -64.13181175 104.66778986 -59.92138672 101.86083984 C-60.51526287 97.86681998 -61.7698807 94.979436 -63.77294922 91.48583984 C-64.37018799 90.43154785 -64.96742676 89.37725586 -65.58276367 88.29101562 C-66.23075928 87.15905762 -66.87875488 86.02709961 -67.54638672 84.86083984 C-68.91329444 82.44504802 -70.27236195 80.02492521 -71.62841797 77.60302734 C-71.97899765 76.97709686 -72.32957733 76.35116638 -72.69078064 75.70626831 C-76.68456032 68.54230921 -80.47263092 61.27386787 -84.23388672 53.98583984 C-84.55762268 53.3609668 -84.88135864 52.73609375 -85.21490479 52.09228516 C-94.99782278 33.19407607 -94.99782278 33.19407607 -92.30419922 23.68115234 C-87.38420709 12.49143574 -75.59348873 7.33335197 -64.92138672 2.86083984 C-44.4058201 -4.9827358 -20.91681064 -8.71213948 0 0 Z M-52.92138672 162.86083984 C-53.67806641 163.73869141 -54.43474609 164.61654297 -55.21435547 165.52099609 C-56.15214844 166.71015625 -56.15214844 166.71015625 -57.10888672 167.92333984 C-60.69737585 172.39202443 -64.3968023 176.73604937 -68.17138672 181.04833984 C-79.06361455 193.54503438 -89.29233047 206.52259693 -99.30078125 219.73291016 C-100.90109403 221.83419461 -102.51590497 223.9233977 -104.13623047 226.00927734 C-121.2454309 248.07319009 -136.74110249 271.22686333 -149.92138672 295.86083984 C-150.25976562 296.49231934 -150.59814453 297.12379883 -150.94677734 297.77441406 C-164.46188872 323.26060641 -174.37821272 350.73151208 -174.29638672 379.79833984 C-174.2958429 380.52528046 -174.29529907 381.25222107 -174.29473877 382.00119019 C-174.25364715 393.97249319 -173.38654795 405.34722192 -169.92138672 416.86083984 C-169.59992676 417.93156738 -169.59992676 417.93156738 -169.27197266 419.02392578 C-164.88086186 433.04096503 -157.34961469 444.65331506 -147.92138672 455.86083984 C-147.48181641 456.42287109 -147.04224609 456.98490234 -146.58935547 457.56396484 C-117.1595562 494.96638532 -57.9406191 505.27547719 -13.92138672 510.86083984 C50.95311982 517.84389406 135.55623256 515.82298686 189.07861328 473.86083984 C190.04927734 473.10931641 191.01994141 472.35779297 192.02001953 471.58349609 C211.93734884 455.73092787 223.90362934 436.08336313 231.07861328 411.86083984 C231.42923828 410.73291016 231.77986328 409.60498047 232.14111328 408.44287109 C242.22232026 369.92425943 230.45086697 327.7317151 214.07861328 292.86083984 C213.77084961 292.20003418 213.46308594 291.53922852 213.14599609 290.85839844 C204.54611209 272.54761839 193.86055498 255.27962387 182.07861328 238.86083984 C181.57894043 238.16071777 181.07926758 237.4605957 180.56445312 236.73925781 C177.32785504 232.20842368 174.06449275 227.69777634 170.78320312 223.19921875 C169.6355886 221.62490595 168.4901196 220.04902716 167.34667969 218.47167969 C160.21281156 208.63247983 152.89668205 199.01416549 145.16845703 189.63427734 C142.20022256 186.02873731 139.31972175 182.36024186 136.45361328 178.67333984 C132.32834209 173.37696551 128.0656166 168.21611459 123.69335938 163.12182617 C120.14269558 158.98071641 120.14269558 158.98071641 118.9309082 156.71386719 C117.08966497 154.49392394 117.08966497 154.49392394 113.52514648 154.40673828 C112.05974321 154.40737031 110.59424322 154.42989746 109.12939453 154.47021484 C107.97046944 154.47870453 107.97046944 154.47870453 106.78813171 154.48736572 C104.32182699 154.50974658 101.85697836 154.55994281 99.39111328 154.61083984 C97.71860823 154.63090279 96.04608039 154.64915392 94.37353516 154.66552734 C90.27466732 154.70961653 86.17688711 154.7786531 82.07861328 154.86083984 C86.25982551 178.09534475 97.96110203 202.08842794 117.10986328 216.30224609 C119.07861328 217.86083984 119.07861328 217.86083984 120.07861328 219.86083984 C120.3604369 223.10181146 120.48233174 225.15688772 118.84423828 228.01318359 C117.07861328 229.86083984 117.07861328 229.86083984 114.98486328 230.49755859 C106.14402562 230.68413471 100.26187179 226.70108607 93.88720703 220.84912109 C78.76637078 204.84056451 72.49513797 182.89520881 65.12841797 162.68481445 C64.15306586 160.06111728 63.11818206 157.4597618 62.07861328 154.86083984 C43.59861328 154.86083984 25.11861328 154.86083984 6.07861328 154.86083984 C3.38705078 162.74990234 3.38705078 162.74990234 0.64111328 170.79833984 C-6.07631756 190.02242869 -13.73740994 211.38787497 -30.92138672 223.86083984 C-33.37060547 224.45458984 -33.37060547 224.45458984 -35.60888672 224.36083984 C-36.35525391 224.35052734 -37.10162109 224.34021484 -37.87060547 224.32958984 C-39.92138672 223.86083984 -39.92138672 223.86083984 -41.69091797 222.82958984 C-43.69740732 219.61920689 -43.68405335 216.45542363 -42.92138672 212.86083984 C-41.45471198 210.3420011 -39.53289497 208.41783883 -37.48388672 206.36083984 C-24.33175338 192.03936899 -16.71200774 173.82516811 -12.92138672 154.86083984 C-17.33195096 154.66161352 -21.74007058 154.51725418 -26.15380859 154.42138672 C-27.65166888 154.38139217 -29.14922151 154.3269722 -30.64599609 154.25732422 C-40.54057279 153.80877008 -46.82580723 154.19333747 -52.92138672 162.86083984 Z " fill="#255159" transform="translate(486.92138671875,332.13916015625)"/>
<path d="M0 0 C24.63758724 9.97149026 46.23353198 10.98039159 71.02319336 0.55639648 C74.55503686 -0.96402896 78.06690712 -2.52526871 81.56762695 -4.1159668 C93.75599166 -9.41763216 111.58238627 -7.12693538 123.7890625 -2.625 C125.05752596 -2.09045007 126.32166159 -1.5455513 127.58203125 -0.9921875 C128.3198584 -0.67088867 129.05768555 -0.34958984 129.81787109 -0.01855469 C136.59676874 2.97950445 143.28857208 6.07287298 149.58203125 10.0078125 C148.99151475 13.7424865 147.93841416 16.58803575 146.1328125 19.90234375 C145.62105469 20.84650146 145.10929688 21.79065918 144.58203125 22.76342773 C144.02515625 23.77219971 143.46828125 24.78097168 142.89453125 25.8203125 C142.32089844 26.86968994 141.74726562 27.91906738 141.15625 29.00024414 C135.37903515 39.50348958 129.34132135 49.85309899 123.22851562 60.16381836 C120.96028802 64.08175777 118.78061065 68.05036959 116.58203125 72.0078125 C104.37203125 72.0078125 92.16203125 72.0078125 79.58203125 72.0078125 C80.32540907 67.54754559 80.93491459 64.75056338 82.6484375 60.77734375 C83.05126953 59.80861328 83.45410156 58.83988281 83.86914062 57.84179688 C84.7130055 55.84262541 85.56703836 53.84771266 86.43164062 51.85742188 C89.0573966 45.48058593 91.23984235 38.93448638 89.58203125 32.0078125 C87.11139435 29.59588381 86.14149249 29.01971593 82.64453125 28.9453125 C78.19391322 30.48940447 75.77643012 33.71237358 73.64929199 37.80038452 C72.80205106 39.75091648 72.03150525 41.715752 71.28515625 43.70703125 C70.86650299 44.78232841 70.86650299 44.78232841 70.43939209 45.87934875 C69.55938327 48.14730744 68.69559087 50.42104691 67.83203125 52.6953125 C67.23802496 54.23282632 66.64298206 55.76994007 66.046875 57.30664062 C63.19829889 64.61497453 63.19829889 64.61497453 60.58203125 72.0078125 C44.08203125 72.0078125 27.58203125 72.0078125 10.58203125 72.0078125 C8.60203125 66.0678125 6.62203125 60.1278125 4.58203125 54.0078125 C2.933463 49.88377777 2.933463 49.88377777 -0.41796875 48.0078125 C-3.90616465 47.5625109 -5.77550947 47.64539957 -8.85546875 49.3828125 C-12.57474012 55.6311884 -8.68845589 65.65537678 -7.41796875 72.0078125 C-17.64796875 72.0078125 -27.87796875 72.0078125 -38.41796875 72.0078125 C-46.25833943 58.00171342 -54.04131314 43.97425003 -61.59915161 29.81396484 C-62.34990498 28.40800596 -63.10223095 27.00288562 -63.85617065 25.59863281 C-64.91943656 23.6165035 -65.9762589 21.63107462 -67.03125 19.64453125 C-67.63751221 18.50717529 -68.24377441 17.36981934 -68.8684082 16.19799805 C-70.33569612 13.17719276 -71.43957993 10.21628548 -72.41796875 7.0078125 C-51.27140262 -10.52836429 -23.97198521 -9.7115422 0 0 Z " fill="#7BCCC0" transform="translate(488.41796875,355.9921875)"/>
<path d="M0 0 C3.19522313 0.73735918 3.70893245 1.83008678 5.4375 4.5625 C6.23364258 6.87744141 6.23364258 6.87744141 6.83203125 9.4140625 C7.06188721 10.34331543 7.29174316 11.27256836 7.52856445 12.22998047 C7.88567505 13.69395264 7.88567505 13.69395264 8.25 15.1875 C11.51190471 27.70616131 15.54801622 36.92716225 26.4375 44.5625 C34.38482795 49.15616828 42.71907239 52.69787379 51.4375 55.5625 C51.4375 57.2125 51.4375 58.8625 51.4375 60.5625 C50.53 60.954375 49.6225 61.34625 48.6875 61.75 C48.048125 62.02714844 47.40875 62.30429688 46.75 62.58984375 C45.07305829 63.29517903 43.38367169 63.97115785 41.6875 64.62890625 C29.66054383 69.3739163 17.64259689 75.46644817 11.9765625 87.72265625 C9.21392109 95.14830149 7.25203496 102.77984119 5.4296875 110.48046875 C4.47931465 113.43261119 3.949235 114.80301051 1.4375 116.5625 C-1.0625 116.625 -1.0625 116.625 -3.5625 115.5625 C-7.25967299 109.5923948 -8.46153429 102.63951051 -10.04882812 95.88085938 C-13.08946482 83.90783737 -19.04273696 76.90115977 -29.5625 70.5625 C-33.82061698 68.37015202 -38.15625227 66.43584809 -42.5625 64.5625 C-44.33444885 63.77333329 -46.10543534 62.98199842 -47.875 62.1875 C-49.10372475 61.64483162 -50.33269817 61.10272303 -51.5625 60.5625 C-51.4296875 58.21484375 -51.4296875 58.21484375 -50.5625 55.5625 C-48.0078125 54.19140625 -48.0078125 54.19140625 -44.6875 53.125 C-33.14005126 49.04868749 -20.5518193 43.2628281 -14.46484375 31.97265625 C-11.68945076 26.07916119 -10.37430685 19.73596956 -8.8515625 13.43164062 C-5.7486539 1.26189964 -5.7486539 1.26189964 0 0 Z " fill="#79CCBF" transform="translate(665.5625,157.4375)"/>
<path d="M0 0 C1.67542976 0.28604898 3.34385343 0.61781233 5 1 C5.4125 2.2375 5.825 3.475 6.25 4.75 C6.52585937 5.56597656 6.80171875 6.38195312 7.0859375 7.22265625 C7.72321739 9.15900667 8.33035702 11.10542542 8.9140625 13.05859375 C11.11207325 20.21553119 12.92591702 25.58771402 19.671875 29.58203125 C25.61188877 32.68018564 31.58989336 35.07696801 38 37 C38 38.65 38 40.3 38 42 C37.39414062 42.23074219 36.78828125 42.46148437 36.1640625 42.69921875 C20.76151687 48.50123866 20.76151687 48.50123866 10.875 61.125 C8.89894584 65.8131285 7.73272431 70.64068352 6.61328125 75.59375 C6 78 6 78 5 79 C2.5625 79.25 2.5625 79.25 0 79 C-2.06095083 75.90857375 -2.59461274 73.89769087 -3.375 70.3125 C-5.63624036 61.0670345 -8.64507052 54.17497803 -17 49 C-21.13142953 47.12542836 -25.39248658 45.62670829 -29.68359375 44.1640625 C-33 43 -33 43 -34 42 C-34.04063832 40.33382885 -34.042721 38.66611905 -34 37 C-32.88625 36.5875 -31.7725 36.175 -30.625 35.75 C-29.89796875 35.47414063 -29.1709375 35.19828125 -28.421875 34.9140625 C-26.77076281 34.2909008 -25.11418234 33.68208385 -23.453125 33.0859375 C-15.85344972 30.25333126 -10.56492384 27.4060107 -7.0078125 19.6640625 C-5.35644942 15.29883141 -3.99036157 10.84484593 -2.66186523 6.37182617 C-1.09221814 1.09221814 -1.09221814 1.09221814 0 0 Z " fill="#78CBBF" transform="translate(726,276)"/>
<path d="M0 0 C1.01783066 -0.01272446 2.03566132 -0.02544891 3.08433533 -0.03855896 C4.19510941 -0.03203308 5.30588348 -0.0255072 6.45031738 -0.01878357 C7.62465836 -0.02739914 8.79899933 -0.03601471 10.00892639 -0.04489136 C13.22600565 -0.06370154 16.44243601 -0.06444706 19.65954018 -0.05556989 C22.34603763 -0.05045817 25.03244277 -0.0577539 27.71893072 -0.06504196 C34.05639568 -0.08203956 40.39361984 -0.07847626 46.7310791 -0.06175232 C53.2683022 -0.0448243 59.80485789 -0.06067429 66.34200811 -0.0929752 C71.95659243 -0.11966611 77.57096891 -0.12694876 83.18561029 -0.11846012 C86.53819246 -0.11353008 89.8903729 -0.11574993 93.24290466 -0.13624763 C96.98050983 -0.15361591 100.71667705 -0.13921283 104.45422363 -0.11643982 C105.56499771 -0.12813202 106.67577179 -0.13982422 107.82020569 -0.15187073 C115.2978504 -0.05890651 115.2978504 -0.05890651 118.63574219 2.86660767 C120.26862527 6.15097749 120.63085516 7.89554554 119.95227051 11.5146637 C117.89732484 14.49318199 116.25762583 16.25803295 112.62237549 16.97271729 C109.61498617 17.15355714 106.64466643 17.16698042 103.63195801 17.12989807 C102.48833801 17.13544708 101.34471802 17.14099609 100.16644287 17.14671326 C96.38629252 17.15852365 92.60733704 17.13421797 88.82727051 17.1084137 C86.20080622 17.10670293 83.57434023 17.10676793 80.94787598 17.10853577 C75.44333395 17.10848223 69.93913563 17.08874921 64.43469238 17.05665588 C58.07652779 17.01976449 51.7188133 17.01098067 45.36055565 17.0179534 C39.23678179 17.02426517 33.11318662 17.01327813 26.98944092 16.99398804 C24.38670606 16.98695301 21.7839576 16.98383411 19.18121338 16.98468018 C15.54475283 16.982884 11.9089329 16.96151604 8.27258301 16.93458557 C6.65624969 16.93898148 6.65624969 16.93898148 5.00726318 16.94346619 C-4.19145662 16.83827556 -4.19145662 16.83827556 -8.04772949 13.5146637 C-9.59359825 10.42292618 -9.34132471 7.92036817 -9.04772949 4.5146637 C-6.2829446 0.95429897 -4.46688147 0.01419289 0 0 Z " fill="#7CCDC1" transform="translate(447.0477294921875,448.48533630371094)"/>
<path d="M0 0 C2.89740622 -0.13539281 5.78845621 -0.23426829 8.6875 -0.3125 C9.50412109 -0.35439453 10.32074219 -0.39628906 11.16210938 -0.43945312 C15.59351138 -0.52915762 17.41167742 -0.45087109 21.04296875 2.33203125 C23 5 23 5 23.625 8 C22.75828572 12.16022855 21.38212544 13.43439786 18 16 C14.70476357 16.60280506 11.52319519 16.47418545 8.1875 16.3125 C7.30384766 16.28994141 6.42019531 16.26738281 5.50976562 16.24414062 C3.3391109 16.18547428 1.1693331 16.09579979 -1 16 C-0.67 10.72 -0.34 5.44 0 0 Z " fill="#7DCFC3" transform="translate(590,449)"/>
<path d="M0 0 C0.66 0.99 1.32 1.98 2 3 C0.75160501 4.105981 -0.49879234 5.20970201 -1.75 6.3125 C-2.44609375 6.92738281 -3.1421875 7.54226563 -3.859375 8.17578125 C-5.85114506 9.87314734 -7.88898915 11.45477809 -10 13 C-8.48446596 9.52224821 -6.4226544 7.0442016 -3.875 4.25 C-3.15054687 3.45078125 -2.42609375 2.6515625 -1.6796875 1.828125 C-0.84824219 0.92320312 -0.84824219 0.92320312 0 0 Z " fill="#173E47" transform="translate(407,494)"/>
<path d="M0 0 C-0.68707031 0.38671875 -1.37414062 0.7734375 -2.08203125 1.171875 C-3.43361328 1.95304687 -3.43361328 1.95304687 -4.8125 2.75 C-5.70582031 3.26046875 -6.59914063 3.7709375 -7.51953125 4.296875 C-9.97930611 5.98579128 -11.37834834 7.52172836 -13 10 C-13.33 8.68 -13.66 7.36 -14 6 C-3.55905512 -1.77952756 -3.55905512 -1.77952756 0 0 Z " fill="#85DBCC" transform="translate(430,357)"/>
<path d="M0 0 C11.52164009 -0.3690205 11.52164009 -0.3690205 17 2 C13.92954549 2.9097643 11.20049657 3.17299981 8 3 C7.67 2.67 7.34 2.34 7 2 C4.67182036 1.63239269 2.3381615 1.29758419 0 1 C0 0.67 0 0.34 0 0 Z " fill="#84D9CB" transform="translate(457,349)"/>
<path d="M0 0 C0.85712696 2.39995548 1.22584094 3.51605512 0.125 5.875 C-0.24625 6.57625 -0.6175 7.2775 -1 8 C-1.38290462 9.99110401 -1.72604615 11.99100513 -2 14 C-2.33 14 -2.66 14 -3 14 C-3.29341888 8.32723489 -3.00559652 5.00932754 0 0 Z " fill="#103740" transform="translate(397,352)"/>
<path d="M0 0 C1.231394 3.69418201 0.64432764 6.2056261 0 10 C-0.66 10 -1.32 10 -2 10 C-1.85950482 8.52031676 -1.71245174 7.04125484 -1.5625 5.5625 C-1.48128906 4.73878906 -1.40007812 3.91507813 -1.31640625 3.06640625 C-1 1 -1 1 0 0 Z " fill="#81D5C7" transform="translate(319,672)"/>
<path d="M0 0 C0.33 0.99 0.66 1.98 1 3 C-0.9375 5.6875 -0.9375 5.6875 -3 8 C-3.66 7.67 -4.32 7.34 -5 7 C-3.35 4.69 -1.7 2.38 0 0 Z " fill="#83D8C9" transform="translate(361,589)"/>
</svg>
