<?xml version="1.0" encoding="UTF-8"?>
<svg version="1.1" xmlns="http://www.w3.org/2000/svg" width="1024" height="1024">
<path d="M0 0 C337.92 0 675.84 0 1024 0 C1024 337.92 1024 675.84 1024 1024 C686.08 1024 348.16 1024 0 1024 C0 686.08 0 348.16 0 0 Z " fill="#FEFEFE" transform="translate(0,0)"/>
<path d="M0 0 C3.56030989 1.42582136 7.14795486 2.77826191 10.73583984 4.1328125 C11.72487305 4.51433472 11.72487305 4.51433472 12.73388672 4.90356445 C28.13371635 10.75414606 42.40374339 7.29826269 56.95385742 0.82421875 C58.46769351 0.13563851 59.97705532 -0.56290505 61.48071289 -1.2734375 C80.44066922 -10.1439962 102.38876066 -9.85925051 122.07177734 -3.0859375 C157.5746841 10.17672336 157.5746841 10.17672336 165.17333984 23.84375 C167.54438262 29.19976626 165.91814501 33.5778061 163.91943359 38.77734375 C161.23178984 45.59609238 158.0764256 52.08389077 154.67333984 58.5703125 C154.07626221 59.71830322 153.47918457 60.86629395 152.86401367 62.04907227 C147.8661946 71.57574353 142.4213615 80.80378715 136.75976562 89.95019531 C136.1576123 90.92698242 135.55545898 91.90376953 134.93505859 92.91015625 C134.40098389 93.76472412 133.86690918 94.61929199 133.31665039 95.49975586 C132.13027342 97.67040324 131.38226111 99.37571959 131.04833984 101.8203125 C132.16488647 103.86779583 132.16488647 103.86779583 133.86083984 105.7578125 C139.22261786 112.16392733 139.53119974 117.79346595 139.44287109 126 C138.80112094 132.2141748 136.47545903 137.39319331 132.04833984 141.8203125 C132.22917689 146.03667102 135.31419104 149.00942393 137.86083984 152.1328125 C138.35076416 152.74527832 138.84068848 153.35774414 139.34545898 153.98876953 C140.90655556 155.9379731 142.47659504 157.87968882 144.04833984 159.8203125 C156.3460767 175.05846464 168.05275788 190.6670036 179.45019531 206.58984375 C180.49632196 208.0498824 181.54473818 209.50828393 182.59570312 210.96484375 C213.07557689 253.21145759 239.57511769 300.61929805 247.04833984 352.8203125 C247.17982422 353.7175 247.31130859 354.6146875 247.44677734 355.5390625 C247.77073246 358.30581433 247.93332074 361.03617355 248.04833984 363.8203125 C248.08088867 364.54718262 248.1134375 365.27405273 248.14697266 366.02294922 C249.24786162 394.2735392 243.83666683 422.0457129 230.04833984 446.8203125 C229.2575 448.25310547 229.2575 448.25310547 228.45068359 449.71484375 C206.41756323 487.9643407 166.34015979 508.29327539 125.23583984 519.5703125 C41.60603683 541.59825238 -58.84359448 538.51388226 -137.93505859 495.01171875 C-166.2569046 478.27919956 -188.66579413 451.19513622 -198.32666016 419.6953125 C-198.56545898 418.92098877 -198.80425781 418.14666504 -199.05029297 417.34887695 C-202.79455424 404.3157591 -203.36056569 391.15461211 -203.32666016 377.6953125 C-203.32611633 376.87982941 -203.32557251 376.06434631 -203.32501221 375.22415161 C-203.28650486 362.6490372 -202.42016528 350.96142795 -198.95166016 338.8203125 C-198.5454015 337.2464315 -198.1404886 335.67220261 -197.73681641 334.09765625 C-186.95034086 293.83514736 -164.16077188 257.27868519 -139.95166016 223.8203125 C-139.3596582 223.00159668 -138.76765625 222.18288086 -138.15771484 221.33935547 C-123.97819223 201.7936764 -108.92677514 183.00430395 -93.15258789 164.72241211 C-89.33462057 160.29119949 -85.61963705 155.78272576 -81.93212891 151.2421875 C-79.32503555 148.054026 -76.64883368 144.9324358 -73.95166016 141.8203125 C-74.95706906 139.2977325 -75.96849553 136.78031311 -77.02197266 134.27734375 C-80.22170022 126.25432315 -81.63477269 119.3474953 -78.32666016 111.1328125 C-75.98692983 106.42828331 -72.76939381 101.22917933 -67.95166016 98.8203125 C-68.52603084 95.17004624 -69.49256605 92.49685974 -71.36572266 89.3203125 C-71.87240479 88.44721436 -72.37908691 87.57411621 -72.90112305 86.67456055 C-73.45405029 85.73265869 -74.00697754 84.79075684 -74.57666016 83.8203125 C-79.94886936 74.49274881 -85.06214484 65.06333042 -90.01416016 55.5078125 C-90.49227142 54.59189331 -90.49227142 54.59189331 -90.9800415 53.6574707 C-103.23029049 30.1652302 -103.23029049 30.1652302 -100.36181641 19.66015625 C-95.73568029 8.59580304 -82.34675107 3.22282689 -71.95166016 -1.1796875 C-47.37796508 -10.71368099 -24.10526701 -9.72471971 0 0 Z " fill="#75CABF" transform="translate(494.95166015625,335.1796875)"/>
<path d="M0 0 C3.56030989 1.42582136 7.14795486 2.77826191 10.73583984 4.1328125 C11.72487305 4.51433472 11.72487305 4.51433472 12.73388672 4.90356445 C28.13371635 10.75414606 42.40374339 7.29826269 56.95385742 0.82421875 C58.46769351 0.13563851 59.97705532 -0.56290505 61.48071289 -1.2734375 C80.44066922 -10.1439962 102.38876066 -9.85925051 122.07177734 -3.0859375 C157.5746841 10.17672336 157.5746841 10.17672336 165.17333984 23.84375 C167.54438262 29.19976626 165.91814501 33.5778061 163.91943359 38.77734375 C161.23178984 45.59609238 158.0764256 52.08389077 154.67333984 58.5703125 C154.07626221 59.71830322 153.47918457 60.86629395 152.86401367 62.04907227 C147.8661946 71.57574353 142.4213615 80.80378715 136.75976562 89.95019531 C136.1576123 90.92698242 135.55545898 91.90376953 134.93505859 92.91015625 C134.40098389 93.76472412 133.86690918 94.61929199 133.31665039 95.49975586 C132.13027342 97.67040324 131.38226111 99.37571959 131.04833984 101.8203125 C132.16488647 103.86779583 132.16488647 103.86779583 133.86083984 105.7578125 C139.22261786 112.16392733 139.53119974 117.79346595 139.44287109 126 C138.80112094 132.2141748 136.47545903 137.39319331 132.04833984 141.8203125 C132.22917689 146.03667102 135.31419104 149.00942393 137.86083984 152.1328125 C138.35076416 152.74527832 138.84068848 153.35774414 139.34545898 153.98876953 C140.90655556 155.9379731 142.47659504 157.87968882 144.04833984 159.8203125 C156.3460767 175.05846464 168.05275788 190.6670036 179.45019531 206.58984375 C180.49632196 208.0498824 181.54473818 209.50828393 182.59570312 210.96484375 C213.07557689 253.21145759 239.57511769 300.61929805 247.04833984 352.8203125 C247.17982422 353.7175 247.31130859 354.6146875 247.44677734 355.5390625 C247.77073246 358.30581433 247.93332074 361.03617355 248.04833984 363.8203125 C248.08088867 364.54718262 248.1134375 365.27405273 248.14697266 366.02294922 C249.24786162 394.2735392 243.83666683 422.0457129 230.04833984 446.8203125 C229.2575 448.25310547 229.2575 448.25310547 228.45068359 449.71484375 C206.41756323 487.9643407 166.34015979 508.29327539 125.23583984 519.5703125 C41.60603683 541.59825238 -58.84359448 538.51388226 -137.93505859 495.01171875 C-166.2569046 478.27919956 -188.66579413 451.19513622 -198.32666016 419.6953125 C-198.56545898 418.92098877 -198.80425781 418.14666504 -199.05029297 417.34887695 C-202.79455424 404.3157591 -203.36056569 391.15461211 -203.32666016 377.6953125 C-203.32611633 376.87982941 -203.32557251 376.06434631 -203.32501221 375.22415161 C-203.28650486 362.6490372 -202.42016528 350.96142795 -198.95166016 338.8203125 C-198.5454015 337.2464315 -198.1404886 335.67220261 -197.73681641 334.09765625 C-186.95034086 293.83514736 -164.16077188 257.27868519 -139.95166016 223.8203125 C-139.3596582 223.00159668 -138.76765625 222.18288086 -138.15771484 221.33935547 C-123.97819223 201.7936764 -108.92677514 183.00430395 -93.15258789 164.72241211 C-89.33462057 160.29119949 -85.61963705 155.78272576 -81.93212891 151.2421875 C-79.32503555 148.054026 -76.64883368 144.9324358 -73.95166016 141.8203125 C-74.95706906 139.2977325 -75.96849553 136.78031311 -77.02197266 134.27734375 C-80.22170022 126.25432315 -81.63477269 119.3474953 -78.32666016 111.1328125 C-75.98692983 106.42828331 -72.76939381 101.22917933 -67.95166016 98.8203125 C-68.52603084 95.17004624 -69.49256605 92.49685974 -71.36572266 89.3203125 C-71.87240479 88.44721436 -72.37908691 87.57411621 -72.90112305 86.67456055 C-73.45405029 85.73265869 -74.00697754 84.79075684 -74.57666016 83.8203125 C-79.94886936 74.49274881 -85.06214484 65.06333042 -90.01416016 55.5078125 C-90.49227142 54.59189331 -90.49227142 54.59189331 -90.9800415 53.6574707 C-103.23029049 30.1652302 -103.23029049 30.1652302 -100.36181641 19.66015625 C-95.73568029 8.59580304 -82.34675107 3.22282689 -71.95166016 -1.1796875 C-47.37796508 -10.71368099 -24.10526701 -9.72471971 0 0 Z M-60.95166016 159.8203125 C-62.02379547 161.03859261 -63.10563703 162.24847757 -64.20166016 163.4453125 C-65.45353359 164.90203795 -66.7032426 166.36062428 -67.95166016 167.8203125 C-68.85738209 168.86243835 -69.76367818 169.90406535 -70.67041016 170.9453125 C-76.2754462 177.40460674 -81.70712737 183.96028208 -86.95117188 190.71606445 C-89.83390642 194.42325072 -92.79321922 198.04650249 -95.82666016 201.6328125 C-102.13695881 209.15739575 -108.0486952 216.97445001 -113.95166016 224.8203125 C-114.50869629 225.55636719 -115.06573242 226.29242187 -115.63964844 227.05078125 C-128.70815401 244.34966359 -141.1275966 262.25731507 -151.93945312 281.06494141 C-153.00451976 282.91198172 -154.08925491 284.74667626 -155.17431641 286.58203125 C-164.99448159 303.3831767 -172.57672405 321.11567839 -177.95166016 339.8203125 C-178.29052246 340.98554443 -178.29052246 340.98554443 -178.63623047 342.17431641 C-187.39164894 373.71937636 -182.62074292 408.73756418 -167.26293945 437.37475586 C-163.35041341 444.25981511 -158.30887692 450.02893635 -152.95166016 455.8203125 C-152.25685547 456.60792969 -151.56205078 457.39554688 -150.84619141 458.20703125 C-139.86586035 470.03690436 -125.52886569 478.25323535 -110.95166016 484.8203125 C-110.24380371 485.1498291 -109.53594727 485.4793457 -108.80664062 485.81884766 C-67.77883585 504.83661307 -20.77357273 510.06204611 23.98583984 510.0078125 C24.98511505 510.00687592 25.98439026 510.00593933 27.01394653 510.00497437 C84.60063296 509.88801608 151.2256587 500.94085677 194.29833984 459.0703125 C217.35704769 435.80154603 226.21975408 404.11314954 226.23583984 372.0703125 C226.24808594 370.801875 226.26033203 369.5334375 226.27294922 368.2265625 C226.28617068 359.58854161 225.52823979 351.32821188 224.04833984 342.8203125 C223.85316772 341.68843506 223.85316772 341.68843506 223.65405273 340.53369141 C211.38580339 275.01974075 161.93591932 214.4597472 119.76196289 164.99975586 C118.04833984 162.8203125 118.04833984 162.8203125 116.28198242 159.90844727 C112.72472386 154.39273893 112.72472386 154.39273893 107.15026855 151.25509644 C101.76827469 150.45589646 96.39480306 150.81598084 90.98583984 151.1328125 C89.34082189 151.18807318 87.69562482 151.2382487 86.05029297 151.28320312 C82.04517061 151.40361823 78.04875219 151.59285367 74.04833984 151.8203125 C79.72963351 171.6264868 86.5153988 192.88378868 102.45068359 206.8671875 C103.04357178 207.38933838 103.63645996 207.91148926 104.24731445 208.44946289 C105.42516331 209.46860471 106.61967981 210.4688733 107.83178711 211.44702148 C110.86785261 214.04661056 111.98789206 215.43201944 112.61083984 219.43359375 C112.03256058 222.91531682 111.65438321 224.47144447 109.04833984 226.8203125 C104.65048464 228.15771996 100.47495195 227.41811161 96.29833984 225.66796875 C73.55623048 212.45557851 65.58765882 182.01291639 56.57373047 159.05371094 C56.0990332 157.85149902 56.0990332 157.85149902 55.61474609 156.625 C55.33574463 155.91327637 55.05674316 155.20155273 54.76928711 154.46826172 C54.16585402 152.8163554 54.16585402 152.8163554 53.04833984 151.8203125 C51.32968576 151.7267206 49.60718241 151.70286639 47.88598633 151.70678711 C46.23438759 151.70690041 46.23438759 151.70690041 44.54942322 151.70701599 C42.75257835 151.71475792 42.75257835 151.71475792 40.91943359 151.72265625 C39.70006607 151.7240712 38.48069855 151.72548615 37.22438049 151.72694397 C33.31150915 151.73256283 29.39869403 151.74511854 25.48583984 151.7578125 C22.84065838 151.76282507 20.19547601 151.7673884 17.55029297 151.77148438 C11.04962258 151.78253839 4.54898523 151.79929486 -1.95166016 151.8203125 C-2.24428238 152.62693832 -2.5369046 153.43356415 -2.83839417 154.26463318 C-24.35724726 213.52310605 -24.35724726 213.52310605 -38.95166016 220.8203125 C-41.01025391 221.0234375 -41.01025391 221.0234375 -43.38916016 221.0703125 C-44.17162109 221.09609375 -44.95408203 221.121875 -45.76025391 221.1484375 C-47.95166016 220.8203125 -47.95166016 220.8203125 -49.69775391 219.53515625 C-51.44772823 217.14188919 -51.60723881 214.89727889 -51.49072266 211.984375 C-50.62315584 208.50153432 -48.45349873 206.52984579 -46.01025391 203.98828125 C-34.0054828 191.3456855 -26.46756603 174.25475319 -22.34619141 157.4921875 C-22.08298096 156.42581055 -21.81977051 155.35943359 -21.54858398 154.26074219 C-21.35159912 153.45540039 -21.15461426 152.65005859 -20.95166016 151.8203125 C-25.36222439 151.62108618 -29.77034402 151.47672684 -34.18408203 151.38085938 C-35.68194232 151.34086483 -37.17949494 151.28644486 -38.67626953 151.21679688 C-48.59301688 150.76723766 -54.80187047 151.19324378 -60.95166016 159.8203125 Z " fill="#1D4F5B" transform="translate(494.95166015625,335.1796875)"/>
<path d="M0 0 C9.7824586 4.69192539 18.84824781 6.79673754 29.70288086 6.63696289 C30.71423096 6.62608643 31.72558105 6.61520996 32.76757812 6.60400391 C47.2422402 6.2948409 59.55325735 1.35955651 72.24975586 -5.30444336 C85.39220873 -11.81998144 101.71937396 -9.9215458 115.30786133 -5.43579102 C125.41316457 -1.83377597 134.98556695 2.89461289 144.26538086 8.26196289 C142.84509256 12.95814276 140.88581876 17.19472334 138.58959961 21.51196289 C138.22935196 22.19952667 137.86910431 22.88709045 137.49794006 23.5954895 C135.5144255 27.36688432 133.49120274 31.11447627 131.4362793 34.84741211 C130.59607662 36.37844946 129.75655612 37.90986137 128.91772461 39.44165039 C128.50338165 40.19686981 128.0890387 40.95208923 127.66213989 41.73019409 C125.24758852 46.20563539 123.264446 50.61949236 121.51928711 55.39477539 C116.91336482 66.99494325 116.91336482 66.99494325 111.26538086 70.26196289 C99.17258934 73.41194034 85.5239306 71.56596692 73.26538086 70.26196289 C75.40295395 63.77818856 77.62526566 57.32718451 79.89038086 50.88696289 C80.50776014 49.12921774 81.12495579 47.37140808 81.74194336 45.61352539 C82.01087402 44.84862793 82.27980469 44.08373047 82.55688477 43.2956543 C84.03982069 39.03898433 84.5897896 35.80368524 84.26538086 31.26196289 C83.41318163 29.15953845 83.41318163 29.15953845 81.26538086 28.26196289 C77.16850952 27.63309457 77.16850952 27.63309457 73.26538086 28.26196289 C69.46908675 32.26265048 67.73575938 36.51899026 65.84741211 41.59008789 C65.54469894 42.3796991 65.24198578 43.1693103 64.93009949 43.98284912 C63.9708031 46.48939025 63.02382623 49.00035636 62.07788086 51.51196289 C61.11901182 54.0369447 60.15760581 56.56092613 59.19352722 59.08392334 C58.5956869 60.65065513 58.00127969 62.21870198 57.41059875 63.78814697 C55.37562707 69.15171668 55.37562707 69.15171668 54.26538086 70.26196289 C52.73055116 70.35515738 51.19146003 70.37942089 49.65380859 70.37548828 C48.67286728 70.37541275 47.69192596 70.37533722 46.68125916 70.3752594 C45.61460526 70.37009811 44.54795135 70.36493683 43.44897461 70.35961914 C41.81968773 70.35749672 41.81968773 70.35749672 40.15748596 70.35533142 C36.67259011 70.34971337 33.18775744 70.33715782 29.70288086 70.32446289 C27.34676199 70.31945022 24.99064212 70.31488691 22.63452148 70.31079102 C16.84478622 70.29973808 11.05508805 70.2829824 5.26538086 70.26196289 C4.97872559 69.33130005 4.97872559 69.33130005 4.6862793 68.38183594 C3.81025179 65.56637208 2.91311171 62.75807797 2.01538086 59.94946289 C1.56485352 58.48476563 1.56485352 58.48476563 1.10522461 56.99047852 C0.65083008 55.58378906 0.65083008 55.58378906 0.18725586 54.14868164 C-0.08505859 53.28460693 -0.35737305 52.42053223 -0.63793945 51.53027344 C-1.94539744 48.82600092 -3.12992893 47.73216715 -5.73461914 46.26196289 C-9.14239683 46.38153404 -11.66748846 46.47907921 -14.46508789 48.53149414 C-16.17297972 50.85948207 -15.90157979 52.00091414 -15.48461914 54.82446289 C-14.77600417 59.96192146 -14.23205689 65.10009933 -13.73461914 70.26196289 C-17.75400977 70.48560218 -21.77096686 70.64824775 -25.79516602 70.75634766 C-27.1613677 70.80142456 -28.52713944 70.86271459 -29.8918457 70.94091797 C-41.09811154 71.56666931 -41.09811154 71.56666931 -44.77685547 68.63378906 C-46.40359009 66.25826981 -47.56147486 63.89042104 -48.73461914 61.26196289 C-49.76619859 59.3964009 -50.80702274 57.53592912 -51.85571289 55.67993164 C-52.96620456 53.60579017 -54.07143808 51.52882717 -55.17211914 49.44946289 C-56.39047176 47.1588869 -57.60923726 44.86853048 -58.82836914 42.57836914 C-59.14156601 41.98856262 -59.45476288 41.3987561 -59.77745056 40.79107666 C-61.80131055 36.98702251 -63.85784697 33.20254511 -65.93907166 29.42958069 C-67.34917294 26.87235964 -68.75021285 24.31022617 -70.15066528 21.74771118 C-70.82918482 20.51167486 -71.51184078 19.27789983 -72.19869995 18.04647827 C-73.15798492 16.32497358 -74.10098105 14.59442262 -75.04321289 12.86352539 C-75.58776123 11.87690918 -76.13230957 10.89029297 -76.69335938 9.8737793 C-77.73461914 7.26196289 -77.73461914 7.26196289 -77.50610352 5.00512695 C-75.44364241 0.34500913 -69.06529127 -1.81659613 -64.61157227 -3.57739258 C-41.44415339 -12.08556319 -22.1317895 -10.74131302 0 0 Z " fill="#75CAC0" transform="translate(493.734619140625,357.738037109375)"/>
<path d="M0 0 C2.5625 0.4375 2.5625 0.4375 4.078125 2.390625 C6.01164708 6.35943348 6.88580203 10.34001041 7.875 14.625 C10.66389891 25.81456776 14.66532129 34.85922483 24.5625 41.4375 C32.55834029 46.04482571 40.75197796 49.70320006 49.5625 52.4375 C51.5625 54.4375 51.5625 54.4375 51.6875 56.875 C50.5625 59.4375 50.5625 59.4375 47.125 61 C45.60670604 61.48715314 44.08565024 61.96575001 42.5625 62.4375 C30.15466355 66.87607564 17.99715486 72.96766447 11.875 85.25 C9.33905907 91.31569655 7.78928257 97.68255217 6.26098633 104.0637207 C6.06786865 104.85866943 5.87475098 105.65361816 5.67578125 106.47265625 C5.50860596 107.1881665 5.34143066 107.90367676 5.16918945 108.64086914 C4.5625 110.4375 4.5625 110.4375 2.5625 112.4375 C-0.0625 112.5625 -0.0625 112.5625 -2.4375 112.4375 C-4.78382013 108.11498348 -6.13831331 104.09427564 -7.25 99.3125 C-10.29196995 87.22235112 -14.9270777 77.08849007 -25.76171875 70.37890625 C-32.94023493 66.2670868 -40.02902178 63.2977076 -48.0234375 61.12890625 C-50.4375 60.4375 -50.4375 60.4375 -51.4375 59.4375 C-51.47830783 57.43791636 -51.48004356 55.43704746 -51.4375 53.4375 C-50.52484375 53.14359375 -50.52484375 53.14359375 -49.59375 52.84375 C-35.15706142 47.91829154 -19.76932787 41.68326958 -11.8828125 27.87109375 C-9.44577133 22.08147432 -7.95202749 16.01786075 -6.44091797 9.92944336 C-6.20775879 8.99366455 -5.97459961 8.05788574 -5.734375 7.09375 C-5.53166992 6.24619141 -5.32896484 5.39863281 -5.12011719 4.52539062 C-4.12725787 1.48857629 -3.14904831 0.5652138 0 0 Z " fill="#6DC8BD" transform="translate(665.4375,159.5625)"/>
<path d="M0 0 C4.80139866 -0.07484195 9.60244862 -0.12892454 14.40429688 -0.16479492 C16.03358891 -0.17976766 17.66284145 -0.20015321 19.29199219 -0.22631836 C32.60990296 -0.43466604 43.24135433 0.29062017 54 9 C61.10029251 16.10029251 63.39792974 23.04896891 63.5 32.875 C63.35409571 43.76658833 60.98021637 52.0401472 53.27734375 60.05859375 C45.59528808 66.60744739 36.06904124 69.3454211 26.09765625 69.1953125 C25.3750914 69.1924826 24.65252655 69.18965271 23.9080658 69.18673706 C21.62603384 69.17564386 19.34441103 69.15056088 17.0625 69.125 C15.50456301 69.11495611 13.94661979 69.10583274 12.38867188 69.09765625 C8.59229301 69.07574033 4.7962156 69.04128738 1 69 C0.34 67.68 -0.32 66.36 -1 65 C-0.02643555 64.12516968 -0.02643555 64.12516968 0.96679688 63.23266602 C4.01450145 58.38700605 3.57261913 53.89281727 3.53125 48.27734375 C3.5350769 47.13971085 3.53890381 46.00207794 3.54284668 44.82997131 C3.54556517 42.42854933 3.53820854 40.02709771 3.52148438 37.62573242 C3.50005583 33.94708421 3.52130022 30.27038479 3.546875 26.59179688 C3.5442321 24.25780819 3.53910792 21.92382071 3.53125 19.58984375 C3.53934692 18.48873764 3.54744385 17.38763153 3.55578613 16.25315857 C3.54317749 15.22852005 3.53056885 14.20388153 3.51757812 13.14819336 C3.51439575 12.24838242 3.51121338 11.34857147 3.50793457 10.42149353 C2.84899218 7.28009535 1.30501907 6.14777514 -1 4 C-0.75 1.75 -0.75 1.75 0 0 Z " fill="#1C4C58" transform="translate(163,905)"/>
<path d="M0 0 C4.28228165 1.09919529 7.0455152 0.30293823 11.25 -1.125 C14.6875 -1.25 14.6875 -1.25 17.25 -1.125 C17.745 3.825 17.745 3.825 18.25 8.875 C15.28 8.545 12.31 8.215 9.25 7.875 C9.91 9.195 10.57 10.515 11.25 11.875 C11.87814483 18.15644828 10.97037788 22.69181101 7.25 27.875 C0.00437121 33.99353098 -7.70079103 34.1695493 -16.75 33.875 C-17.41 35.195 -18.07 36.515 -18.75 37.875 C-16.38212271 39.05893864 -14.84817508 39.02969355 -12.20703125 39.0859375 C-10.84288086 39.12847656 -10.84288086 39.12847656 -9.45117188 39.171875 C-7.54510484 39.22342516 -5.63882998 39.2678487 -3.73242188 39.3046875 C3.16421998 39.53764936 8.37933606 40.29876313 13.6875 45.0625 C15.73852296 48.75434133 15.98084322 51.80093779 15.25 55.875 C12.60970051 62.83578956 7.84503845 65.72544638 1.25 68.875 C-3.44058243 70.28303742 -8.14024653 70.13708762 -13 70.1875 C-13.91652344 70.21650391 -14.83304688 70.24550781 -15.77734375 70.27539062 C-22.77249014 70.3402529 -28.06691647 69.05056783 -33.43847656 64.41918945 C-34.75 62.875 -34.75 62.875 -35.25 60 C-34.58457417 55.84108856 -32.89413271 54.59038734 -29.75 51.875 C-28.986875 51.111875 -28.22375 50.34875 -27.4375 49.5625 C-26.880625 49.005625 -26.32375 48.44875 -25.75 47.875 C-28.06 45.895 -30.37 43.915 -32.75 41.875 C-30.26017809 39.31404032 -27.79769994 36.91294313 -25 34.6875 C-22.67512612 33.07190923 -22.67512612 33.07190923 -21.75 30.875 C-22.4925 30.6275 -23.235 30.38 -24 30.125 C-26.99840999 28.76208637 -28.62959545 27.37404822 -30.75 24.875 C-32.59989522 19.32531434 -32.71514041 13.84240161 -30.125 8.5625 C-21.63838937 -1.04076992 -12.27076946 -3.23025384 0 0 Z " fill="#1D4D5A" transform="translate(869.75,925.125)"/>
<path d="M0 0 C0.00546844 1.17391045 0.00546844 1.17391045 0.01104736 2.37153625 C0.04889999 9.74366968 0.10572046 17.11529622 0.18390274 24.48710346 C0.22342779 28.27714595 0.25559117 32.06695437 0.27099609 35.85717773 C0.28613022 39.51439554 0.32051615 43.17097008 0.36830902 46.82790184 C0.38315668 48.22369994 0.39104296 49.61958987 0.39188385 51.01546669 C0.3942447 52.96916002 0.42355675 54.92276474 0.45410156 56.8762207 C0.46298401 57.9887471 0.47186646 59.1012735 0.48101807 60.24751282 C0.74299095 63.1368469 0.74299095 63.1368469 3.03411865 64.88273621 C3.6828595 65.25143326 4.33160034 65.62013031 5 66 C4.505 67.485 4.505 67.485 4 69 C1.671875 69.94921875 1.671875 69.94921875 -1.25 70.6875 C-2.20390625 70.93886719 -3.1578125 71.19023438 -4.140625 71.44921875 C-6.84604951 71.9703456 -9.25434317 72.10521678 -12 72 C-12 70.02 -12 68.04 -12 66 C-12.54269531 66.34933594 -13.08539062 66.69867187 -13.64453125 67.05859375 C-14.35996094 67.51363281 -15.07539062 67.96867188 -15.8125 68.4375 C-16.52019531 68.88996094 -17.22789062 69.34242188 -17.95703125 69.80859375 C-22.72829774 72.5910723 -27.62930525 72.70121831 -33 72 C-38.63472723 69.73831018 -42.58386055 65.92325979 -46 61 C-49.1273271 53.34191632 -49.40840857 43.91685492 -47.125 35.9453125 C-44.10538159 29.40942791 -39.76527217 25.0708997 -33.5 21.625 C-25.37501466 19.59375367 -19.10921457 22.3744582 -12 26 C-12.14151828 23.9163691 -12.28837936 21.83310062 -12.4375 19.75 C-12.51871094 18.58984375 -12.59992187 17.4296875 -12.68359375 16.234375 C-13.00691564 12.53386115 -13.00691564 12.53386115 -14 9 C-14.99 8.34 -15.98 7.68 -17 7 C-16.67 5.68 -16.34 4.36 -16 3 C-14.27318563 2.49193553 -12.54342021 1.99389533 -10.8125 1.5 C-9.36810547 1.08234375 -9.36810547 1.08234375 -7.89453125 0.65625 C-5.13439851 0.03047092 -2.81289292 -0.04974903 0 0 Z " fill="#1C4D58" transform="translate(738,903)"/>
<path d="M0 0 C6.93 0 13.86 0 21 0 C21.33 1.32 21.66 2.64 22 4 C21.37609375 4.53109375 20.7521875 5.0621875 20.109375 5.609375 C16.79624194 9.36425914 17.32589528 13.40664226 17.25 18.25 C17.1675 21.4675 17.085 24.685 17 28 C26.9 28 36.8 28 47 28 C46.9175 24.7825 46.835 21.565 46.75 18.25 C46.72631348 16.73841309 46.72631348 16.73841309 46.70214844 15.19628906 C46.61590376 9.92990082 46.61590376 9.92990082 43.890625 5.609375 C43.26671875 5.07828125 42.6428125 4.5471875 42 4 C42.33 2.68 42.66 1.36 43 0 C49.93 0 56.86 0 64 0 C63 5 63 5 61 7 C60.67979534 9.34949673 60.67979534 9.34949673 60.70947266 12.10473633 C60.69671295 13.16956741 60.68395325 14.2343985 60.67080688 15.33149719 C60.66858124 16.48667343 60.66635559 17.64184967 60.6640625 18.83203125 C60.6574057 20.01592941 60.6507489 21.19982758 60.64389038 22.41960144 C60.63374851 24.92888837 60.62907383 27.43820236 60.62939453 29.94750977 C60.62502965 33.78642372 60.58874678 37.6241809 60.55078125 41.46289062 C60.54491182 43.89843356 60.54094327 46.33398197 60.5390625 48.76953125 C60.52469147 49.9186348 60.51032043 51.06773834 60.49551392 52.25166321 C60.52984877 58.24613047 60.58924902 61.55596246 65 66 C64.505 67.485 64.505 67.485 64 69 C57.07 69 50.14 69 43 69 C43 67.68 43 66.36 43 65 C43.4844458 64.53682373 43.9688916 64.07364746 44.46801758 63.59643555 C46.66389836 61.3081703 46.42899839 59.58386084 46.51171875 56.45703125 C46.56138794 55.00647339 46.56138794 55.00647339 46.61206055 53.52661133 C46.63695557 52.30095459 46.66185059 51.07529785 46.6875 49.8125 C46.790625 45.914375 46.89375 42.01625 47 38 C37.1 38 27.2 38 17 38 C17.103125 41.898125 17.20625 45.79625 17.3125 49.8125 C17.33739502 51.03815674 17.36229004 52.26381348 17.38793945 53.52661133 C17.42105225 54.4936499 17.45416504 55.46068848 17.48828125 56.45703125 C17.51446533 57.44678955 17.54064941 58.43654785 17.56762695 59.45629883 C18.07040092 62.41417687 18.90156749 62.99369891 21 65 C21 66.32 21 67.64 21 69 C14.07 69 7.14 69 0 69 C1 64 1 64 3 62 C3.32022046 59.6433558 3.32022046 59.6433558 3.29052734 56.87939453 C3.30328705 55.81133575 3.31604675 54.74327698 3.32919312 53.64285278 C3.33141876 52.48453949 3.33364441 51.3262262 3.3359375 50.1328125 C3.3459227 48.35340775 3.3459227 48.35340775 3.35610962 46.53805542 C3.36625071 44.02457229 3.37092619 41.51106216 3.37060547 38.99755859 C3.37497428 35.14766093 3.41126888 31.29891306 3.44921875 27.44921875 C3.45508736 25.0104206 3.45905646 22.57161699 3.4609375 20.1328125 C3.47530853 18.97854767 3.48967957 17.82428284 3.50448608 16.63504028 C3.49833282 15.56067719 3.49217957 14.48631409 3.48583984 13.37939453 C3.48868988 12.43500519 3.49153992 11.49061584 3.49447632 10.51760864 C3.20793368 7.81861349 3.20793368 7.81861349 0.90713501 5.91378784 C0.27778046 5.28223785 -0.3515741 4.65068787 -1 4 C-0.67 2.68 -0.34 1.36 0 0 Z " fill="#204F5B" transform="translate(536,905)"/>
<path d="M0 0 C5.24519027 4.64407789 8.63921253 9.32919722 9.3359375 16.41796875 C9.42498863 25.01140297 9.29754018 33.00038643 3.421875 39.8359375 C-3.90703278 46.60362261 -10.60651261 47.58112038 -20.40234375 47.33984375 C-28.34137103 46.58990306 -32.43293947 43.07936722 -37.5546875 37.1953125 C-41.81486956 30.72444138 -41.73394789 23.47373767 -41 16 C-38.90152253 8.61206127 -35.18374533 3.10053741 -28.5 -0.75 C-19.29166457 -5.73259246 -9.01484998 -5.42099019 0 0 Z " fill="#1C4D59" transform="translate(462,928)"/>
<path d="M0 0 C4.28230587 3.17407093 6.88659474 6.80561789 8.2421875 11.90234375 C9.30041917 21.32752864 9.14906698 30.00577855 3.2421875 37.90234375 C-1.27876269 43.0194632 -6.56251094 45.6099166 -13.2578125 46.22265625 C-22.05115378 46.48436284 -28.1645027 46.12050275 -34.71875 40.1015625 C-41.07208534 33.4240774 -42.23656624 26.94871803 -42.078125 17.90625 C-41.37846366 11.3447918 -38.34003885 5.61934147 -33.7578125 0.90234375 C-23.27569183 -7.43570679 -11.00423082 -6.8715308 0 0 Z " fill="#1D4E5A" transform="translate(648.7578125,929.09765625)"/>
<path d="M0 0 C0.29132812 1.2065625 0.58265625 2.413125 0.8828125 3.65625 C3.62561823 14.55466514 5.74822111 22.85055866 15.625 29.1875 C21.19953855 32.28918685 27.06013135 34.69345307 33 37 C33 38.65 33 40.3 33 42 C32.16597656 42.29132813 31.33195313 42.58265625 30.47265625 42.8828125 C20.69507212 46.44440672 12.01655041 49.96480446 6.3359375 59.08203125 C4.24665148 63.64547176 2.98137561 68.44651474 1.82324219 73.32348633 C1.2734375 75.5 1.2734375 75.5 0 79 C-2.07958984 79.71875 -2.07958984 79.71875 -4 80 C-7.10216148 76.53956071 -7.81824435 73.23550035 -8.8125 68.75 C-11.16813805 59.20467464 -15.06598759 53.54463746 -23.4140625 48.31640625 C-27.32907434 46.32341684 -31.39264756 45.01886683 -35.59375 43.76171875 C-38 43 -38 43 -39 42 C-39.04063832 40.33382885 -39.042721 38.66611905 -39 37 C-38.09121094 36.65388672 -38.09121094 36.65388672 -37.1640625 36.30078125 C-21.96474378 30.70633894 -21.96474378 30.70633894 -11.85546875 18.71484375 C-9.58097066 13.33953179 -8.06297079 7.82293042 -6.7109375 2.15234375 C-6.47632813 1.44207031 -6.24171875 0.73179687 -6 0 C-3.50907189 -1.24546405 -2.58919267 -0.7767578 0 0 Z " fill="#6CC8BD" transform="translate(731,276)"/>
<path d="M0 0 C1.01783066 -0.01272446 2.03566132 -0.02544891 3.08433533 -0.03855896 C4.19510941 -0.03203308 5.30588348 -0.0255072 6.45031738 -0.01878357 C7.62465836 -0.02739914 8.79899933 -0.03601471 10.00892639 -0.04489136 C13.22600565 -0.06370154 16.44243601 -0.06444706 19.65954018 -0.05556989 C22.34603763 -0.05045817 25.03244277 -0.0577539 27.71893072 -0.06504196 C34.05639568 -0.08203956 40.39361984 -0.07847626 46.7310791 -0.06175232 C53.2683022 -0.0448243 59.80485789 -0.06067429 66.34200811 -0.0929752 C71.95659243 -0.11966611 77.57096891 -0.12694876 83.18561029 -0.11846012 C86.53819246 -0.11353008 89.8903729 -0.11574993 93.24290466 -0.13624763 C96.98050983 -0.15361591 100.71667705 -0.13921283 104.45422363 -0.11643982 C105.56499771 -0.12813202 106.67577179 -0.13982422 107.82020569 -0.15187073 C115.295778 -0.05893228 115.295778 -0.05893228 118.63964844 2.86270142 C120.24322366 6.10249229 120.55962602 7.94645005 119.95227051 11.5146637 C117.95832141 14.01539678 116.74967504 15.34535429 113.5815506 16.01802826 C112.69813744 16.01953636 111.81472427 16.02104446 110.90454102 16.02259827 C109.88671036 16.03387756 108.8688797 16.04515686 107.82020569 16.05677795 C106.15404457 16.04463257 106.15404457 16.04463257 104.45422363 16.03224182 C102.69271217 16.04275574 102.69271217 16.04275574 100.89561462 16.05348206 C97.67852055 16.06806854 94.462085 16.06465313 91.24500084 16.05196571 C87.87694295 16.04183211 84.50892877 16.05123238 81.14086914 16.05751038 C75.48498649 16.06478579 69.82931283 16.05520209 64.17346191 16.03614807 C57.63631521 16.01437925 51.09966752 16.02143072 44.5625329 16.04345369 C38.94795542 16.06161094 33.33352808 16.06416452 27.71893072 16.05369902 C24.36641607 16.04746576 21.0141359 16.04662351 17.66163635 16.05984497 C13.92418471 16.06998076 10.18769706 16.05454908 6.45031738 16.03224182 C5.3395433 16.04033875 4.22876923 16.04843567 3.08433533 16.05677795 C2.06650467 16.04549866 1.04867401 16.03421936 0 16.02259827 C-1.32511974 16.02033611 -1.32511974 16.02033611 -2.67700958 16.01802826 C-5.8596353 15.3422753 -7.06228921 14.04540724 -9.04772949 11.5146637 C-9.54772949 8.0146637 -9.54772949 8.0146637 -9.04772949 4.5146637 C-6.2640405 0.96711395 -4.47427597 0.01421638 0 0 Z " fill="#77CDC2" transform="translate(447.0477294921875,448.48533630371094)"/>
<path d="M0 0 C0.33 1.98 0.66 3.96 1 6 C1.7425 5.38125 2.485 4.7625 3.25 4.125 C8.15133835 0.33760219 11.74476521 -0.72524461 18 0 C23.5091503 1.27748413 26.91699664 3.06719462 30 8 C31.16029479 11.48088437 31.14308659 14.26214839 31.17578125 17.93359375 C31.1989745 19.31837466 31.22309164 20.70314035 31.24804688 22.08789062 C31.28317868 24.26483439 31.31252287 26.44121519 31.32592773 28.6184082 C31.34141994 30.72415654 31.38162189 32.8282768 31.42578125 34.93359375 C31.44036377 36.19228271 31.45494629 37.45097168 31.4699707 38.74780273 C32.09352609 42.57386508 33.2764823 43.4100532 36 46 C35.67 47.32 35.34 48.64 35 50 C28.4 50 21.8 50 15 50 C14.505 48.02 14.505 48.02 14 46 C14.70032349 45.06994141 14.70032349 45.06994141 15.41479492 44.12109375 C17.51075353 41.31658299 17.37320693 39.53487831 17.36328125 36.0625 C17.36263672 34.92039062 17.36199219 33.77828125 17.36132812 32.6015625 C17.3371582 30.81878906 17.3371582 30.81878906 17.3125 29 C17.31572266 27.81148437 17.31894531 26.62296875 17.32226562 25.3984375 C17.4995948 18.37796517 17.4995948 18.37796517 15 12 C12.30412197 9.90320597 10.907056 10.00489179 7.4375 10.1875 C3.4685203 11.09080551 3.4685203 11.09080551 1 14 C0.53561206 17.04929015 0.53561206 17.04929015 0.6015625 20.53125 C0.59769531 21.81644531 0.59382812 23.10164062 0.58984375 24.42578125 C0.59612793 25.09432129 0.60241211 25.76286133 0.60888672 26.45166016 C0.62494646 28.4931933 0.60903329 30.53274708 0.58984375 32.57421875 C0.59564453 34.50201172 0.59564453 34.50201172 0.6015625 36.46875 C0.60494629 37.64888672 0.60833008 38.82902344 0.61181641 40.04492188 C1.04738732 43.36073969 1.63634955 43.84994656 4 46 C4 47.32 4 48.64 4 50 C-2.93 50 -9.86 50 -17 50 C-16 45 -16 45 -14 42 C-13.5907229 37.75246039 -13.62839598 33.49576027 -13.62939453 29.23095703 C-13.62502883 27.13881562 -13.58872379 25.04879839 -13.55078125 22.95703125 C-13.54491101 21.61979885 -13.540943 20.28255647 -13.5390625 18.9453125 C-13.53084473 17.73375488 -13.52262695 16.52219727 -13.51416016 15.27392578 C-14.08814175 11.40603979 -15.46787881 9.89465923 -18 7 C-18 6.01 -18 5.02 -18 4 C-15.5636811 3.32873871 -13.12611117 2.66283646 -10.6875 2 C-9.65206055 1.71382812 -9.65206055 1.71382812 -8.59570312 1.421875 C-5.64212051 0.62283816 -3.07440781 0 0 0 Z " fill="#1C4C58" transform="translate(796,924)"/>
<path d="M0 0 C5.55589956 3.30321514 8.96105814 8.14057898 11.00390625 14.19140625 C11.44737375 17.69603136 11.62026636 20.95868603 10.00390625 24.19140625 C0.10390625 24.19140625 -9.79609375 24.19140625 -19.99609375 24.19140625 C-17.70625431 32.673689 -17.70625431 32.673689 -11.99609375 37.19140625 C-7.49140244 38.69297002 -3.20970899 39.12884473 1.19921875 37.26171875 C2.56528053 36.53080008 3.91509087 35.76823823 5.2421875 34.96875 C7.00390625 34.19140625 7.00390625 34.19140625 10.00390625 35.19140625 C9.75610946 38.82575917 9.47814833 40.68842222 6.94140625 43.37890625 C-0.51048248 47.97688015 -7.29953584 49.35692432 -15.99609375 48.19140625 C-23.32007006 45.9695258 -28.37985948 41.94741149 -31.99609375 35.19140625 C-34.89972723 27.90720461 -35.40596851 19.77198647 -33.0859375 12.234375 C-29.92856415 5.46277364 -26.22854657 1.96010685 -19.68359375 -1.62109375 C-12.46977806 -3.94418694 -6.77840235 -3.38330691 0 0 Z " fill="#1B4B57" transform="translate(383.99609375,926.80859375)"/>
<path d="M0 0 C2.07542884 -0.03051547 4.15098785 -0.05225904 6.2265625 -0.0703125 C7.38236816 -0.08336426 8.53817383 -0.09641602 9.72900391 -0.10986328 C16.47825174 0.1168244 21.56109223 2.62582129 26.45703125 7.23046875 C32.14917764 13.75842397 32.69487315 20.8866025 32.44921875 29.33203125 C31.63817849 35.95435131 29.10243248 41.3726723 24.1875 45.9375 C17.11518123 50.51370626 10.47597945 52.09873808 2 51 C0 49 0 49 -0.24050903 46.89926147 C-0.23606781 46.03322296 -0.23162659 45.16718445 -0.22705078 44.27490234 C-0.22682419 42.80360367 -0.22682419 42.80360367 -0.22659302 41.30258179 C-0.21627045 40.24108917 -0.20594788 39.17959656 -0.1953125 38.0859375 C-0.1924826 37.00116119 -0.18965271 35.91638489 -0.18673706 34.79873657 C-0.17551578 31.32404687 -0.15040762 27.84961218 -0.125 24.375 C-0.11497272 22.02344121 -0.10584643 19.6718784 -0.09765625 17.3203125 C-0.07557011 11.54678756 -0.04207345 5.77341199 0 0 Z " fill="#F9FAFB" transform="translate(180,914)"/>
<path d="M0 0 C0.68964844 -0.00386719 1.37929688 -0.00773438 2.08984375 -0.01171875 C7.24666707 -0.00166646 7.24666707 -0.00166646 9.5 1.125 C8.84 4.095 8.18 7.065 7.5 10.125 C6.18 9.795 4.86 9.465 3.5 9.125 C-0.04199641 8.70826793 -0.04199641 8.70826793 -3.5 9.125 C-6.52734067 12.131121 -6.93929921 14.70522678 -7.1875 18.875 C-7.290625 20.6075 -7.39375 22.34 -7.5 24.125 C-2.88 24.125 1.74 24.125 6.5 24.125 C6.17 27.095 5.84 30.065 5.5 33.125 C1.54 33.125 -2.42 33.125 -6.5 33.125 C-6.45587693 37.77047409 -6.3860797 42.414585 -6.29248047 47.05932617 C-6.26425807 48.63929392 -6.24304975 50.21940318 -6.22900391 51.79956055 C-6.20759035 54.07153845 -6.16095466 56.34181271 -6.109375 58.61328125 C-6.10814636 59.31963211 -6.10691772 60.02598297 -6.10565186 60.7537384 C-6.00529388 64.1151413 -5.93489215 65.70474665 -3.46191406 68.09448242 C-2.81448242 68.43455322 -2.16705078 68.77462402 -1.5 69.125 C-1.83 70.115 -2.16 71.105 -2.5 72.125 C-9.43 72.125 -16.36 72.125 -23.5 72.125 C-22.5 67.125 -22.5 67.125 -20.5 65.125 C-20.25484303 62.62124532 -20.12666342 60.21950521 -20.0859375 57.7109375 C-20.06657135 56.98129791 -20.0472052 56.25165833 -20.0272522 55.49990845 C-19.96741578 53.16672498 -19.92105577 50.83349227 -19.875 48.5 C-19.83682386 46.91924918 -19.79777235 45.33851924 -19.7578125 43.7578125 C-19.66171122 39.8803777 -19.57769588 36.00284551 -19.5 32.125 C-21.48 32.125 -23.46 32.125 -25.5 32.125 C-25.5 29.485 -25.5 26.845 -25.5 24.125 C-23.52 24.125 -21.54 24.125 -19.5 24.125 C-19.53480469 23.40054688 -19.56960938 22.67609375 -19.60546875 21.9296875 C-19.88839896 11.82503726 -19.88839896 11.82503726 -16.5 7.125 C-11.02749649 1.75383915 -7.71480528 -0.04326059 0 0 Z " fill="#1E4E5A" transform="translate(502.5,901.875)"/>
<path d="M0 0 C6.93 0 13.86 0 21 0 C20 4 20 4 19 7 C19.69771956 9.50415027 19.69771956 9.50415027 20.87109375 12.21875 C21.28037109 13.23324219 21.68964844 14.24773438 22.11132812 15.29296875 C22.54896484 16.35128906 22.98660156 17.40960937 23.4375 18.5 C24.29489779 20.59189773 25.14797103 22.68557471 25.99609375 24.78125 C26.57121704 26.1744043 26.57121704 26.1744043 27.15795898 27.59570312 C28 30 28 30 28 33 C28.66 33 29.32 33 30 33 C30.226875 31.783125 30.45375 30.56625 30.6875 29.3125 C31.84885112 23.96350322 33.87064715 19.05521433 35.9765625 14.015625 C36.97207095 11.08229475 37.33555274 9.06327181 37 6 C35.54166642 4.37485532 35.54166642 4.37485532 34 3 C34 2.01 34 1.02 34 0 C39.61 0 45.22 0 51 0 C50 4 50 4 48.66088867 5.67871094 C46.14800361 9.19076608 44.90304178 13.10370752 43.42578125 17.140625 C43.09708542 18.02280701 42.76838959 18.90498901 42.42973328 19.81390381 C41.38444472 22.62367578 40.34836859 25.43674334 39.3125 28.25 C38.60412102 30.15907891 37.89514349 32.06793584 37.18554688 33.9765625 C35.45008298 38.64849708 33.72287171 43.32340792 32 48 C28.04 48 24.08 48 20 48 C19.50072998 46.81446533 19.00145996 45.62893066 18.48706055 44.4074707 C16.62903719 39.99831159 14.76606517 35.59125778 12.90161133 31.18481445 C12.09622806 29.2794587 11.29217767 27.37353897 10.48950195 25.46704102 C9.33376645 22.72261647 8.17321108 19.9802735 7.01171875 17.23828125 C6.65534836 16.38913651 6.29897797 15.53999176 5.93180847 14.66511536 C4.51694697 11.33538259 3.12716801 8.20991323 1.24926758 5.11010742 C0 3 0 3 0 0 Z " fill="#1C4C59" transform="translate(298,926)"/>
<path d="M0 0 C0.00879936 1.23028679 0.00879936 1.23028679 0.01777649 2.48542786 C0.07565291 10.21067571 0.14769996 17.93559917 0.23571491 25.66055775 C0.28046453 29.63216439 0.31971021 33.60366738 0.34643555 37.57543945 C0.37242319 41.4076262 0.41279253 45.239415 0.46318626 49.07135582 C0.47988589 50.53414655 0.49138088 51.99700615 0.49761391 53.45987892 C0.50722194 55.50728817 0.5352383 57.55367224 0.56762695 59.60083008 C0.57873001 60.76665115 0.58983307 61.93247223 0.60127258 63.13362122 C0.75381273 66.02642895 0.75381273 66.02642895 2.52702332 67.89994812 C3.01310562 68.26296524 3.49918793 68.62598236 4 69 C3.67 69.99 3.34 70.98 3 72 C-3.6 72 -10.2 72 -17 72 C-16 67 -16 67 -14 65 C-13.68668098 62.64308174 -13.68668098 62.64308174 -13.7253418 59.87939453 C-13.71580978 58.81133575 -13.70627777 57.74327698 -13.69645691 56.64285278 C-13.69736832 55.48453949 -13.69827972 54.3262262 -13.69921875 53.1328125 C-13.69493362 51.94654266 -13.6906485 50.76027283 -13.68623352 49.53805542 C-13.68048137 47.02456298 -13.67999643 44.51105389 -13.68432617 41.99755859 C-13.68748129 38.14782299 -13.66405358 34.29885897 -13.63867188 30.44921875 C-13.63639854 28.01041764 -13.63569555 25.57161446 -13.63671875 23.1328125 C-13.627509 21.97854767 -13.61829926 20.82428284 -13.60881042 19.63504028 C-13.61815361 18.02349564 -13.61815361 18.02349564 -13.62768555 16.37939453 C-13.62705612 15.43500519 -13.6264267 14.49061584 -13.6257782 13.51760864 C-14.06433546 10.56717779 -15.15448157 9.28525886 -17 7 C-16.6875 4.75 -16.6875 4.75 -16 3 C-14.08487728 2.49411853 -12.16783078 1.99551609 -10.25 1.5 C-8.64898438 1.08234375 -8.64898438 1.08234375 -7.015625 0.65625 C-4 0 -4 0 0 0 Z " fill="#1C4D59" transform="translate(680,902)"/>
<path d="M0 0 C-0.33 4.95 -0.66 9.9 -1 15 C-2.7325 14.9175 -4.465 14.835 -6.25 14.75 C-10.55590569 14.53656999 -10.55590569 14.53656999 -14.14160156 16.6965332 C-16.3668302 19.45468247 -16.51390728 20.7450322 -16.53125 24.24609375 C-16.53640625 25.24833984 -16.5415625 26.25058594 -16.546875 27.28320312 C-16.53140625 28.32412109 -16.5159375 29.36503906 -16.5 30.4375 C-16.51546875 31.47455078 -16.5309375 32.51160156 -16.546875 33.58007812 C-16.51683685 39.42625363 -16.31493661 42.69362478 -12 47 C-12 47.99 -12 48.98 -12 50 C-18.93 50 -25.86 50 -33 50 C-32 45 -32 45 -31 44 C-30.87431786 41.51415964 -30.81137243 39.05758328 -30.796875 36.5703125 C-30.79117493 35.82417694 -30.78547485 35.07804138 -30.77960205 34.30929565 C-30.77013849 32.72720768 -30.7636127 31.14509988 -30.75976562 29.56298828 C-30.7500677 27.14190218 -30.71906177 24.7216676 -30.6875 22.30078125 C-30.6809694 20.76563006 -30.67571915 19.23047277 -30.671875 17.6953125 C-30.6595282 16.97022491 -30.6471814 16.24513733 -30.63446045 15.49807739 C-30.58708199 11.5267035 -30.58708199 11.5267035 -32.52050781 8.20654297 C-33.00874023 7.80838379 -33.49697266 7.41022461 -34 7 C-34 6.01 -34 5.02 -34 4 C-31.91798472 3.49453964 -29.83432933 2.99583165 -27.75 2.5 C-26.58984375 2.2215625 -25.4296875 1.943125 -24.234375 1.65625 C-21 1 -21 1 -17 1 C-16.67 3.97 -16.34 6.94 -16 10 C-15.52949219 9.44570313 -15.05898437 8.89140625 -14.57421875 8.3203125 C-13.95160156 7.59585938 -13.32898438 6.87140625 -12.6875 6.125 C-12.07261719 5.40570312 -11.45773438 4.68640625 -10.82421875 3.9453125 C-7.02925014 -0.10157051 -5.89814994 0 0 0 Z " fill="#1E4E5A" transform="translate(267,924)"/>
<path d="M0 0 C-0.103125 0.886875 -0.20625 1.77375 -0.3125 2.6875 C-0.209375 3.780625 -0.10625 4.87375 0 6 C0.825 6.639375 1.65 7.27875 2.5 7.9375 C6.37777537 12.68777483 5.53776491 17.38283436 5.3125 23.3125 C5.28994141 24.43462891 5.26738281 25.55675781 5.24414062 26.71289062 C5.18533776 29.47662536 5.10320401 32.23762554 5 35 C3.68 35.66 2.36 36.32 1 37 C1.66 36.01 2.32 35.02 3 34 C3.45926914 30.36945819 3.37031516 26.71901658 3.375 23.0625 C3.41173828 21.55913086 3.41173828 21.55913086 3.44921875 20.02539062 C3.56508444 14.34305245 3.56508444 14.34305245 1.1640625 9.37109375 C-2.86963311 6.81544906 -6.30381572 6.51418783 -11 7 C-14.74414323 9.9121114 -16.5318526 12.55028453 -18 17 C-18.76380404 23.43904571 -18.7084786 29.71366591 -15.421875 35.44140625 C-12.78421462 38.33268782 -9.71878806 39.00832318 -6 40 C-6 41.65 -6 43.3 -6 45 C-3.525 44.505 -3.525 44.505 -1 44 C-3.51583186 46.7554349 -5.42057373 47.80362373 -9.19921875 48.2734375 C-15.83654167 48.54434864 -19.92057753 47.31015581 -25 43 C-30.29757931 37.9720176 -32.20977476 32.54931179 -32.43139648 25.29052734 C-32.45760078 16.52990736 -31.45381817 9.84948766 -25.28515625 3.1328125 C-17.20288241 -4.25972681 -9.77851887 -4.1172711 0 0 Z " fill="#1B4A56" transform="translate(722,927)"/>
<path d="M0 0 C7.66022099 0.90883978 7.66022099 0.90883978 10.5625 1.6875 C14.00645315 2.12903246 16.69638347 0.98528914 20 0 C23.4375 -0.125 23.4375 -0.125 26 0 C26.495 4.95 26.495 4.95 27 10 C24.03 9.67 21.06 9.34 18 9 C18.66 10.32 19.32 11.64 20 13 C20.62733662 19.27336623 19.72736875 23.82755906 16 29 C10.02357228 33.95916343 5.22639638 34.19661278 -2.3125 33.5625 C-3.56675781 33.46066406 -4.82101562 33.35882812 -6.11328125 33.25390625 C-7.06589844 33.17011719 -8.01851562 33.08632813 -9 33 C-8.01 31.35 -7.02 29.7 -6 28 C-6.474375 27.566875 -6.94875 27.13375 -7.4375 26.6875 C-10.29739337 23.59881516 -10.33056621 20.14587695 -10.29296875 16.0703125 C-9.8172593 12.70863236 -8.12468751 10.56212317 -6 8 C-2.87139505 6.43569752 -0.44397075 6.64372716 3 7 C5.4375 8.75 5.4375 8.75 7 12 C7.31914336 16.02329908 7.2311767 19.97367255 7 24 C8.17605839 17.75130423 8.50277865 13.47309165 5 8 C2.68256074 6.5560966 0.63321608 5.84461648 -2 5 C-1.34 3.35 -0.68 1.7 0 0 Z " fill="#1C4D59" transform="translate(861,924)"/>
<path d="M0 0 C-2.36511935 0.7007761 -4.13749436 0.99345265 -6.625 0.875 C-7.40875 0.91625 -8.1925 0.9575 -9 1 C-9.99 2.485 -9.99 2.485 -11 4 C-9.906875 4.433125 -8.81375 4.86625 -7.6875 5.3125 C-4.90591207 6.49495641 -2.93638061 7.60800043 -1 10 C-1.33 10.66 -1.66 11.32 -2 12 C-2.86625 11.175 -3.7325 10.35 -4.625 9.5 C-6.98607645 7.55002863 -7.94369534 7.01034167 -11.0625 6.4375 C-14.75764011 7.14508002 -16.38562552 8.31300401 -19 11 C-22.27885463 17.54632434 -21.95846836 26.03032219 -20.25 33.0625 C-18.25688567 37.74631868 -15.81919039 39.75617147 -11.25 41.75 C-9.64125 42.36875 -9.64125 42.36875 -8 43 C-8.33 44.32 -8.66 45.64 -9 47 C-8.01 47.66 -7.02 48.32 -6 49 C-20.8498372 49.81493009 -20.8498372 49.81493009 -27 45 C-32.7621434 39.72946804 -35.54959006 35.10464596 -36.24609375 27.2109375 C-36.59808198 18.78455257 -34.75463682 13.13195523 -30.125 6.1875 C-22.5852756 -1.573981 -10.05879873 -5.19163806 0 0 Z " fill="#1C4C58" transform="translate(643,926)"/>
<path d="M0 0 C0.01458252 1.29212402 0.02916504 2.58424805 0.04418945 3.91552734 C0.10205022 8.69787633 0.17928317 13.47974839 0.26245117 18.26171875 C0.29575823 20.33358027 0.32377197 22.40553379 0.34643555 24.47753906 C0.37987563 27.45157173 0.43218505 30.42475679 0.48828125 33.3984375 C0.49467117 34.32868744 0.5010611 35.25893738 0.50764465 36.21737671 C0.53733589 37.50848862 0.53733589 37.50848862 0.56762695 38.82568359 C0.57873001 39.58513275 0.58983307 40.34458191 0.60127258 41.12704468 C0.85957248 43.410719 0.85957248 43.410719 4 45 C4 46.32 4 47.64 4 49 C-2.93 49 -9.86 49 -17 49 C-17 45 -17 45 -15.52270508 42.63867188 C-13.68122753 39.44760416 -13.62654339 37.44438106 -13.63671875 33.78125 C-13.63736328 32.60175781 -13.63800781 31.42226563 -13.63867188 30.20703125 C-13.65478516 28.98371094 -13.67089844 27.76039063 -13.6875 26.5 C-13.68427734 25.27667969 -13.68105469 24.05335938 -13.67773438 22.79296875 C-13.71066763 17.31407197 -13.74720065 13.05006563 -16 8 C-16.36871088 6.34080104 -16.71281674 4.6752357 -17 3 C-14.91798472 2.49453964 -12.83432933 1.99583165 -10.75 1.5 C-9.58984375 1.2215625 -8.4296875 0.943125 -7.234375 0.65625 C-4 0 -4 0 0 0 Z " fill="#22515D" transform="translate(768,925)"/>
<path d="M0 0 C0.01401855 1.87703613 0.01401855 1.87703613 0.02832031 3.79199219 C0.06820482 8.4365595 0.13395941 13.08046335 0.20751953 17.72460938 C0.23573807 19.73428827 0.25694821 21.74407834 0.27099609 23.75390625 C0.29241335 26.64380849 0.33905703 29.5323729 0.390625 32.421875 C0.39185364 33.31992859 0.39308228 34.21798218 0.39434814 35.14324951 C0.47011115 40.26898733 0.47011115 40.26898733 3.03808594 44.59863281 C3.68551758 45.06108398 4.33294922 45.52353516 5 46 C4.67 46.99 4.34 47.98 4 49 C-2.6 49 -9.2 49 -16 49 C-15 44 -15 44 -14 42 C-13.87718668 39.55434023 -13.81168559 37.13818978 -13.796875 34.69140625 C-13.79117493 33.96888168 -13.78547485 33.24635712 -13.77960205 32.50193787 C-13.77015282 30.97290512 -13.76361837 29.44385201 -13.75976562 27.91479492 C-13.75005188 25.57499759 -13.71902623 23.23607577 -13.6875 20.89648438 C-13.68097063 19.41146355 -13.6757199 17.92643645 -13.671875 16.44140625 C-13.6595282 15.7413295 -13.6471814 15.04125275 -13.63446045 14.31996155 C-13.64467982 10.38611842 -13.64467982 10.38611842 -15.52050781 7.03491211 C-16.00874023 6.69339111 -16.49697266 6.35187012 -17 6 C-16.67 5.01 -16.34 4.02 -16 3 C-13.671875 2.05078125 -13.671875 2.05078125 -10.75 1.3125 C-9.31914062 0.93544922 -9.31914062 0.93544922 -7.859375 0.55078125 C-5.1461093 0.028144 -2.7512643 -0.0408002 0 0 Z " fill="#1D4D59" transform="translate(291,925)"/>
<path d="M0 0 C3.19346282 1.52415271 5.75790056 3.25965624 8 6 C8.71098248 9.59026934 8.60149333 13.22206271 8.625 16.875 C8.67011719 17.86886719 8.71523438 18.86273437 8.76171875 19.88671875 C8.82811314 26.97194906 8.82811314 26.97194906 6.56005859 29.78759766 C2.52925526 32.83543735 -0.90630805 33.78710259 -5.91796875 33.48828125 C-9.40810824 32.66976824 -10.93043427 30.82213509 -13 28 C-15.89426713 21.94556134 -16.22680087 14.97129354 -14.2421875 8.546875 C-11.02533895 1.70790565 -7.83346218 -0.82457497 0 0 Z " fill="#F8F9FA" transform="translate(718,933)"/>
<path d="M0 0 C4.25990967 2.86724689 6.54404379 5.10208281 8 10 C8.30073465 12.81784748 8.32480189 15.60560515 8.3125 18.4375 C8.32861328 19.17548828 8.34472656 19.91347656 8.36132812 20.67382812 C8.36562018 25.50238595 7.68393315 28.83267523 5 33 C1.45619849 35.36253434 -0.54229069 35.59715336 -4.70703125 35.515625 C-8.22423972 34.72470248 -9.7402224 32.78121644 -11.90625 30.01953125 C-15.1205491 24.08455755 -14.45260786 16.53401163 -14 10 C-11.77134592 3.31403776 -7.40654139 -1.36038515 0 0 Z " fill="#FAFBFB" transform="translate(635,932)"/>
<path d="M0 0 C4.25990967 2.86724689 6.54404379 5.10208281 8 10 C8.30073465 12.81784748 8.32480189 15.60560515 8.3125 18.4375 C8.32861328 19.17548828 8.34472656 19.91347656 8.36132812 20.67382812 C8.36562018 25.50238595 7.68393315 28.83267523 5 33 C0.97583127 35.68277915 -2.27199673 35.79769475 -7 35 C-10.39003041 32.61976588 -11.68980484 30.72378871 -13.3125 26.9375 C-14.70721437 18.94959043 -15.30009009 11.11739049 -11 4 C-7.51534486 0.32698512 -5.04816406 -0.92721381 0 0 Z " fill="#F9FBFB" transform="translate(449,932)"/>
<path d="M0 0 C0.061875 0.763125 0.12375 1.52625 0.1875 2.3125 C0.72739572 5.20336005 0.72739572 5.20336005 3.375 6.375 C6.27519458 8.17035855 7.36275713 9.77059511 8.56640625 12.953125 C9.34825103 16.64399584 9.0330896 20.3803026 8 24 C7.34 24.33 6.68 24.66 6 25 C6.03480469 24.10796875 6.06960938 23.2159375 6.10546875 22.296875 C6.13253906 21.12640625 6.15960937 19.9559375 6.1875 18.75 C6.22230469 17.58984375 6.25710938 16.4296875 6.29296875 15.234375 C5.97678214 11.74367478 5.52687934 10.38778506 3 8 C-0.45749949 7.33323122 -0.45749949 7.33323122 -4 8 C-6.36497439 9.86708505 -7.66030715 11.32061431 -9 14 C-9.36458323 19.55989421 -9.21136815 22.31675479 -6 27 C-6 30 -6 30 -7.5625 31.8125 C-10 33 -10 33 -13.4375 32.5 C-17.319225 30.86558947 -19.326604 29.22380106 -22 26 C-23.84989522 20.45031434 -23.96514041 14.96740161 -21.375 9.6875 C-14.95761868 2.4257264 -9.71671648 -0.38866866 0 0 Z " fill="#1A4A56" transform="translate(861,924)"/>
<path d="M0 0 C3.08479556 -0.13503482 6.16368583 -0.23411031 9.25 -0.3125 C10.12269531 -0.35439453 10.99539063 -0.39628906 11.89453125 -0.43945312 C18.37739784 -0.56317195 18.37739784 -0.56317195 21.578125 2.33203125 C23.32190014 5.60400494 23.60970433 7.34177403 23 11 C21.609375 13.66796875 21.609375 13.66796875 19 16 C15.56677572 16.62470681 12.22498095 16.4706749 8.75 16.3125 C7.81414063 16.28994141 6.87828125 16.26738281 5.9140625 16.24414062 C3.60868866 16.18533007 1.30413932 16.09565154 -1 16 C-0.67 10.72 -0.34 5.44 0 0 Z " fill="#78CFC4" transform="translate(590,449)"/>
<path d="M0 0 C0.62003906 0.18820312 1.24007812 0.37640625 1.87890625 0.5703125 C1.91628906 1.18519531 1.95367188 1.80007813 1.9921875 2.43359375 C2.09080078 3.64595703 2.09080078 3.64595703 2.19140625 4.8828125 C2.27841797 6.08357422 2.27841797 6.08357422 2.3671875 7.30859375 C2.98689825 10.04762064 3.60750298 10.93649611 5.87890625 12.5703125 C8.37334399 13.35829305 8.37334399 13.35829305 11.06640625 13.7578125 C11.96746094 13.91636719 12.86851562 14.07492187 13.796875 14.23828125 C14.82748047 14.40263672 14.82748047 14.40263672 15.87890625 14.5703125 C15.87890625 15.2303125 15.87890625 15.8903125 15.87890625 16.5703125 C16.53890625 16.5703125 17.19890625 16.5703125 17.87890625 16.5703125 C17.87890625 17.2303125 17.87890625 17.8903125 17.87890625 18.5703125 C19.52890625 18.5703125 21.17890625 18.5703125 22.87890625 18.5703125 C19.55874053 21.89047822 15.26295402 20.93918608 10.75390625 20.9453125 C9.82835937 20.96980469 8.9028125 20.99429688 7.94921875 21.01953125 C0.93054884 21.04927138 -4.41961471 19.76212882 -9.80908203 15.11474609 C-11.12109375 13.5703125 -11.12109375 13.5703125 -11.62109375 10.6953125 C-10.95528684 6.53401934 -9.3017656 5.24496837 -6.12109375 2.5703125 C-5.10015625 1.6421875 -5.10015625 1.6421875 -4.05859375 0.6953125 C-2.12109375 -0.4296875 -2.12109375 -0.4296875 0 0 Z " fill="#1C4C58" transform="translate(846.12109375,974.4296875)"/>
<path d="M0 0 C2.84287154 2.18682426 3.83071489 3.82654638 4.34375 7.3828125 C4.52150366 12.34510211 4.32168212 16.06319156 1 20 C-2 22 -2 22 -5.5 21.8125 C-10.09983633 20.74468085 -10.09983633 20.74468085 -12 18 C-13.24067966 14.27796101 -13.54711324 10.86626692 -13 7 C-9.5406106 0.6577861 -7.2437186 -0.7493502 0 0 Z " fill="#F8FAFA" transform="translate(864,931)"/>
<path d="M0 0 C7.22701744 0.04574062 14.8158824 0.16371327 20.96875 4.265625 C20.63777062 7.35476585 19.96590301 8.2683181 17.65625 10.453125 C13.0501816 13.55954322 8.48306146 13.90147006 2.96875 13.265625 C0.04947396 11.8694495 -1.75327996 10.54359504 -4.03125 8.265625 C-4.28125 5.265625 -4.28125 5.265625 -4.03125 2.265625 C-2.03125 0.265625 -2.03125 0.265625 0 0 Z " fill="#F9FAFB" transform="translate(852.03125,975.734375)"/>
<path d="M0 0 C2.69990662 1.79993774 4.5418865 3.083773 6 6 C6 7.98 6 9.96 6 12 C-0.27 12 -6.54 12 -13 12 C-12 5 -12 5 -9.3125 2.0625 C-5.66816294 -0.20661553 -4.18675177 -0.80171842 0 0 Z " fill="#F0F4F4" transform="translate(377,932)"/>
<path d="M0 0 C2.09765625 0.34765625 2.09765625 0.34765625 4.16015625 1.97265625 C5.37418198 5.04818811 5.57607796 7.06705024 5.09765625 10.34765625 C3.59765625 12.72265625 3.59765625 12.72265625 1.09765625 14.34765625 C-2.41675196 14.97699695 -5.63939105 14.9791326 -8.90234375 13.34765625 C-10.4872979 10.17774794 -10.61374593 6.80702372 -9.90234375 3.34765625 C-7.18800338 -0.4165705 -4.33986692 -0.16230397 0 0 Z " fill="#1B4A56" transform="translate(286.90234375,904.65234375)"/>
<path d="M0 0 C2.5 1.625 2.5 1.625 4 4 C4.60024477 7.60146865 4.45562482 9.27859404 2.5 12.375 C-1.24099229 14.80664499 -3.57426418 14.49174842 -8 14 C-10 13 -10 13 -11 11 C-11.51981506 7.43555389 -11.63102777 4.26205554 -10 1 C-6.7370473 -0.63147635 -3.51440821 -0.6293407 0 0 Z " fill="#1C4D59" transform="translate(764,905)"/>
<path d="M0 0 C5.61 0 11.22 0 17 0 C16 4 16 4 14.62890625 5.73828125 C11.88708558 9.54526966 10.69161643 14.01632851 9.16210938 18.41992188 C7.20119048 23.89940476 7.20119048 23.89940476 5 25 C5.15597656 24.31292969 5.31195313 23.62585938 5.47265625 22.91796875 C5.66730469 22.01691406 5.86195313 21.11585938 6.0625 20.1875 C6.35833984 18.84751953 6.35833984 18.84751953 6.66015625 17.48046875 C7.20349463 14.87369221 7.20349463 14.87369221 6 12 C5.34 12 4.68 12 4 12 C3.87625 13.134375 3.7525 14.26875 3.625 15.4375 C3.41875 16.613125 3.2125 17.78875 3 19 C2.34 19.33 1.68 19.66 1 20 C1.5151876 16.39368681 2.03530108 12.82349462 2.75 9.25 C3.3737821 6.04345688 3.3737821 6.04345688 1.5625 4.25 C1.046875 3.8375 0.53125 3.425 0 3 C0 2.01 0 1.02 0 0 Z " fill="#174451" transform="translate(332,926)"/>
<path d="M0 0 C0 0.99 0 1.98 0 3 C-0.33 3.33 -0.66 3.66 -1 4 C4.28 4 9.56 4 15 4 C15 3.01 15 2.02 15 1 C15.99 1.99 16.98 2.98 18 4 C17.67 4.99 17.34 5.98 17 7 C10.4 7 3.8 7 -3 7 C-2 2 -2 2 0 0 Z " fill="#0F3E4B" transform="translate(666,967)"/>
<path d="M0 0 C0.33 0.66 0.66 1.32 1 2 C6.61 2.33 12.22 2.66 18 3 C18 2.34 18 1.68 18 1 C18.66 1 19.32 1 20 1 C20 2.32 20 3.64 20 5 C13.07 5 6.14 5 -1 5 C-1 1 -1 1 0 0 Z " fill="#154351" transform="translate(752,969)"/>
<path d="M0 0 C0.33 2.31 0.66 4.62 1 7 C-4.625 9.125 -4.625 9.125 -8 8 C-7.67 7.34 -7.34 6.68 -7 6 C-7.99 5.34 -8.98 4.68 -10 4 C-10 3.34 -10 2.68 -10 2 C-8.52112267 1.66538533 -7.04188942 1.33234333 -5.5625 1 C-4.32693359 0.7215625 -4.32693359 0.7215625 -3.06640625 0.4375 C-1 0 -1 0 0 0 Z " fill="#265561" transform="translate(722,964)"/>
<path d="M0 0 C0.66 0.33 1.32 0.66 2 1 C1.01 2.32 0.02 3.64 -1 5 C-0.01 5.33 0.98 5.66 2 6 C-1.56045177 7.18681726 -4.43808337 7.09689832 -8.1875 7.0625 C-9.45980469 7.05347656 -10.73210938 7.04445313 -12.04296875 7.03515625 C-13.50669922 7.01775391 -13.50669922 7.01775391 -15 7 C-13.35 5.35 -11.7 3.7 -10 2 C-10 2.66 -10 3.32 -10 4 C-8.33388095 4.042721 -6.66617115 4.04063832 -5 4 C-4.67 3.67 -4.34 3.34 -4 3 C-2.67151309 1.99357052 -1.33849671 0.99307821 0 0 Z " fill="#225661" transform="translate(867,950)"/>
<path d="M0 0 C0 0.99 0 1.98 0 3 C-0.33 3.33 -0.66 3.66 -1 4 C4.94 4.33 10.88 4.66 17 5 C17 5.33 17 5.66 17 6 C12.71702469 7.05619003 8.57014354 7.11702092 4.1875 7.0625 C3.49462891 7.05798828 2.80175781 7.05347656 2.08789062 7.04882812 C0.39188932 7.03713156 -1.30406703 7.01919924 -3 7 C-3 3 -3 3 -1.5 1.25 C-1.005 0.8375 -0.51 0.425 0 0 Z " fill="#0E3E4C" transform="translate(582,967)"/>
<path d="M0 0 C-0.33 0.66 -0.66 1.32 -1 2 C-2.423125 2.37125 -2.423125 2.37125 -3.875 2.75 C-7.27533943 3.74456463 -7.27533943 3.74456463 -8.875 7.125 C-9.24625 8.07375 -9.6175 9.0225 -10 10 C-10.33 10 -10.66 10 -11 10 C-11.35706695 3.69181722 -11.35706695 3.69181722 -10 1.0625 C-6.73357754 -0.67278693 -3.65648548 -0.17982715 0 0 Z " fill="#153E4C" transform="translate(764,905)"/>
<path d="M0 0 C0.99 0.33 1.98 0.66 3 1 C3 1.66 3 2.32 3 3 C4.65 3 6.3 3 8 3 C6 5 6 5 4.12060547 5.22705078 C3.37697754 5.21657715 2.63334961 5.20610352 1.8671875 5.1953125 C1.06152344 5.18886719 0.25585938 5.18242188 -0.57421875 5.17578125 C-1.41597656 5.15902344 -2.25773438 5.14226563 -3.125 5.125 C-4.39923828 5.11146484 -4.39923828 5.11146484 -5.69921875 5.09765625 C-7.79959884 5.07405647 -9.89983444 5.03818483 -12 5 C-12 4.67 -12 4.34 -12 4 C-10.95199219 3.90912109 -10.95199219 3.90912109 -9.8828125 3.81640625 C-8.97273437 3.73261719 -8.06265625 3.64882813 -7.125 3.5625 C-6.22007812 3.48128906 -5.31515625 3.40007813 -4.3828125 3.31640625 C-1.98889139 3.13010715 -1.98889139 3.13010715 0 2 C0 1.34 0 0.68 0 0 Z " fill="#0E3844" transform="translate(861,990)"/>
<path d="M0 0 C1.17755859 -0.02126953 1.17755859 -0.02126953 2.37890625 -0.04296875 C4.4375 0.1875 4.4375 0.1875 6.4375 2.1875 C1.4875 2.8475 -3.4625 3.5075 -8.5625 4.1875 C-8.2325 3.1975 -7.9025 2.2075 -7.5625 1.1875 C-4.76092552 0.25364184 -2.90802197 0.02395405 0 0 Z " fill="#27525E" transform="translate(372.5625,923.8125)"/>
<path d="M0 0 C0.66 0.33 1.32 0.66 2 1 C0.02 3.97 0.02 3.97 -2 7 C-0.68 8.32 0.64 9.64 2 11 C-1.25543229 10.65120368 -2.01873107 9.97866739 -4.25 7.4375 C-4.8275 6.633125 -5.405 5.82875 -6 5 C-4.02 3.35 -2.04 1.7 0 0 Z " fill="#113A48" transform="translate(843,961)"/>
<path d="M0 0 C0.66 0 1.32 0 2 0 C1.34 2.97 0.68 5.94 0 9 C-3.1921126 8.20197185 -5.98155093 7.25768711 -9 6 C-7.1875 5.375 -7.1875 5.375 -5 5 C-4.01 5.66 -3.02 6.32 -2 7 C-1.34 4.69 -0.68 2.38 0 0 Z " fill="#123A48" transform="translate(510,903)"/>
<path d="M0 0 C2 2 2 2 2.125 4.625 C2.08375 5.40875 2.0425 6.1925 2 7 C2.66 7 3.32 7 4 7 C4 8.32 4 9.64 4 11 C4.99 11 5.98 11 7 11 C7.33 10.34 7.66 9.68 8 9 C8 9.99 8 10.98 8 12 C6.68 12.33 5.36 12.66 4 13 C0.25474201 9.25474201 0.31090051 5.01729091 0 0 Z " fill="#5BC2B6" transform="translate(723,343)"/>
<path d="M0 0 C0 4.13781054 -1.71509607 5.20919996 -4.5 8.1875 C-5.3353125 9.08855469 -6.170625 9.98960937 -7.03125 10.91796875 C-7.6809375 11.60503906 -8.330625 12.29210937 -9 13 C-9.66 12.67 -10.32 12.34 -11 12 C-7.37 8.04 -3.74 4.08 0 0 Z " fill="#80D9CB" transform="translate(442,487)"/>
<path d="M0 0 C0 3.96 0 7.92 0 12 C-0.99 11.67 -1.98 11.34 -3 11 C-3 7.7 -3 4.4 -3 1 C-1 0 -1 0 0 0 Z " fill="#275964" transform="translate(418,450)"/>
<path d="M0 0 C-1.28965176 1.37562854 -2.62689293 2.70766393 -4 4 C-4.66 4 -5.32 4 -6 4 C-6.33 4.66 -6.66 5.32 -7 6 C-7.33 4.35 -7.66 2.7 -8 1 C-5.29120665 -0.35439668 -2.99066732 -0.06501451 0 0 Z " fill="#1B4450" transform="translate(759,927)"/>
<path d="M0 0 C0.99 0.33 1.98 0.66 3 1 C3 2.98 3 4.96 3 7 C0.03824877 6.38722388 -1.38058783 5.74627478 -4 4 C-3.01 3.67 -2.02 3.34 -1 3 C-0.67 2.01 -0.34 1.02 0 0 Z " fill="#285462" transform="translate(885,927)"/>
<path d="M0 0 C0.66 0 1.32 0 2 0 C1.125 4.75 1.125 4.75 0 7 C-0.66 7 -1.32 7 -2 7 C-2.33 7.99 -2.66 8.98 -3 10 C-3.33 9.34 -3.66 8.68 -4 8 C-3.22265625 6.0546875 -3.22265625 6.0546875 -2.0625 3.875 C-1.49208984 2.78832031 -1.49208984 2.78832031 -0.91015625 1.6796875 C-0.60980469 1.12539063 -0.30945313 0.57109375 0 0 Z " fill="#154351" transform="translate(622,396)"/>
<path d="M0 0 C0 3.99904969 -1.72586967 5.80200422 -4 9 C-4.99 8.67 -5.98 8.34 -7 8 C-4.69 5.36 -2.38 2.72 0 0 Z " fill="#103946" transform="translate(391,513)"/>
<path d="M0 0 C3.375 -0.125 3.375 -0.125 7 0 C7.66 0.66 8.32 1.32 9 2 C8 3 8 3 4.4375 3.0625 C3.303125 3.041875 2.16875 3.02125 1 3 C0.67 2.01 0.34 1.02 0 0 Z " fill="#6EC0B8" transform="translate(481,841)"/>
<path d="M0 0 C0.99 0.33 1.98 0.66 3 1 C3 3.31 3 5.62 3 8 C2.01 7.67 1.02 7.34 0 7 C0 4.69 0 2.38 0 0 Z " fill="#2A5A65" transform="translate(739,687)"/>
</svg>
